<?xml version="1.0" encoding="UTF-8" standalone="no"?>
<!-- Created with Inkscape (http://www.inkscape.org/) -->

<svg
   width="500mm"
   height="500mm"
   viewBox="0 0 500 500"
   version="1.1"
   id="svg1"
   inkscape:version="1.3.2 (091e20e, 2023-11-25)"
   sodipodi:docname="Float Circle.svg"
   xmlns:inkscape="http://www.inkscape.org/namespaces/inkscape"
   xmlns:sodipodi="http://sodipodi.sourceforge.net/DTD/sodipodi-0.dtd"
   xmlns="http://www.w3.org/2000/svg"
   xmlns:svg="http://www.w3.org/2000/svg">
  <sodipodi:namedview
     id="namedview1"
     pagecolor="#ffffff"
     bordercolor="#000000"
     borderopacity="0.25"
     inkscape:showpageshadow="2"
     inkscape:pageopacity="0.0"
     inkscape:pagecheckerboard="0"
     inkscape:deskcolor="#d1d1d1"
     inkscape:document-units="mm"
     showgrid="false"
     inkscape:zoom="0.25982083"
     inkscape:cx="946.80629"
     inkscape:cy="944.88189"
     inkscape:window-width="1356"
     inkscape:window-height="697"
     inkscape:window-x="0"
     inkscape:window-y="0"
     inkscape:window-maximized="1"
     inkscape:current-layer="layer1" />
  <defs
     id="defs1" />
  <g
     inkscape:label="Layer 1"
     inkscape:groupmode="layer"
     id="layer1">
    <path
       id="path2"
       style="opacity:0.49970804;fill:#1a1a1a;fill-opacity:1;stroke-width:1.83208;stroke-linecap:round;stroke-linejoin:round"
       d="M 224.24314,88.334022 A 182.62233,182.62233 0 0 0 41.620704,270.95647 182.62233,182.62233 0 0 0 224.24314,453.57892 182.62233,182.62233 0 0 0 406.86558,270.95647 182.62233,182.62233 0 0 0 224.24314,88.334022 Z m 0,36.023128 A 146.59947,146.59947 0 0 1 370.84246,270.95647 146.59947,146.59947 0 0 1 224.24314,417.55579 146.59947,146.59947 0 0 1 77.643824,270.95647 146.59947,146.59947 0 0 1 224.24314,124.35715 Z" />
    <path
       id="path1"
       style="opacity:1;fill:#ffffff;fill-opacity:1;stroke-width:1.83208;stroke-linecap:round;stroke-linejoin:round"
       d="M 279.66406,49.986696 A 182.62233,182.62233 0 0 0 97.04162,232.60914 182.62233,182.62233 0 0 0 279.66406,415.23159 182.62233,182.62233 0 0 0 462.2865,232.60914 182.62233,182.62233 0 0 0 279.66406,49.986696 Z m 0,36.023124 A 146.59947,146.59947 0 0 1 426.26338,232.60914 146.59947,146.59947 0 0 1 279.66406,379.20846 146.59947,146.59947 0 0 1 133.06474,232.60914 146.59947,146.59947 0 0 1 279.66406,86.00982 Z" />
  </g>
</svg>
