<?xml version="1.0" encoding="UTF-8" standalone="no"?>
<!-- Created with Inkscape (http://www.inkscape.org/) -->

<svg
   width="500mm"
   height="500mm"
   viewBox="0 0 500 500"
   version="1.1"
   id="svg1"
   inkscape:version="1.3.2 (091e20e, 2023-11-25)"
   sodipodi:docname="float X.svg"
   xmlns:inkscape="http://www.inkscape.org/namespaces/inkscape"
   xmlns:sodipodi="http://sodipodi.sourceforge.net/DTD/sodipodi-0.dtd"
   xmlns="http://www.w3.org/2000/svg"
   xmlns:svg="http://www.w3.org/2000/svg">
  <sodipodi:namedview
     id="namedview1"
     pagecolor="#ffffff"
     bordercolor="#000000"
     borderopacity="0.25"
     inkscape:showpageshadow="2"
     inkscape:pageopacity="0.0"
     inkscape:pagecheckerboard="0"
     inkscape:deskcolor="#d1d1d1"
     inkscape:document-units="mm"
     showgrid="false"
     inkscape:zoom="0.25982083"
     inkscape:cx="946.8063"
     inkscape:cy="944.8819"
     inkscape:window-width="1356"
     inkscape:window-height="697"
     inkscape:window-x="0"
     inkscape:window-y="0"
     inkscape:window-maximized="1"
     inkscape:current-layer="layer1" />
  <defs
     id="defs1" />
  <g
     inkscape:label="Layer 1"
     inkscape:groupmode="layer"
     id="layer1">
    <path
       id="path2"
       style="opacity:0.5;fill:#070707;stroke-width:2;stroke-linecap:round;stroke-linejoin:round"
       d="m 92.674977,126.93901 c -15.518261,15.51825 -15.518261,40.50456 -1e-5,56.02281 l 75.888573,75.88859 -75.888563,75.88857 c -15.518261,15.51825 -15.518261,40.50457 0,56.02282 15.518243,15.51826 40.504553,15.51826 56.022813,0 l 75.88857,-75.88857 75.88858,75.88857 c 15.51825,15.51826 40.5042,15.51789 56.02245,-3.6e-4 15.51826,-15.51826 15.51863,-40.5042 3.7e-4,-56.02246 l -75.88857,-75.88857 75.88857,-75.88858 c 15.51826,-15.51826 15.51826,-40.50457 0,-56.02282 -15.51825,-15.51826 -40.50457,-15.51826 -56.02282,0 l -75.88858,75.88857 -75.88857,-75.88857 c -15.51825,-15.51826 -40.50457,-15.51826 -56.022813,0 z" />
    <path
       id="rect1"
       style="fill:#ffffff;fill-opacity:1;stroke-width:2;stroke-linecap:round;stroke-linejoin:round"
       d="m 143.44731,109.73067 c -15.51826,15.51826 -15.51826,40.50456 -10e-6,56.02281 l 75.88858,75.88858 -75.88857,75.88858 c -15.51826,15.51825 -15.51826,40.50457 0,56.02282 15.51825,15.51826 40.50456,15.51826 56.02282,0 l 75.88857,-75.88857 75.88858,75.88857 c 15.51825,15.51826 40.5042,15.51789 56.02245,-3.6e-4 15.51826,-15.51826 15.51863,-40.5042 3.7e-4,-56.02246 l -75.88857,-75.88858 75.88857,-75.88858 c 15.51826,-15.51825 15.51826,-40.50456 0,-56.02281 -15.51825,-15.518265 -40.50457,-15.518265 -56.02282,0 l -75.88858,75.88856 -75.88857,-75.88856 c -15.51825,-15.518265 -40.50457,-15.518265 -56.02282,0 z" />
  </g>
</svg>
