<?xml version="1.0" encoding="UTF-8" standalone="no"?>
<!-- Created with Inkscape (http://www.inkscape.org/) -->

<svg
   width="500mm"
   height="500mm"
   viewBox="0 0 500 500"
   version="1.1"
   id="svg1"
   inkscape:version="1.3.2 (091e20e, 2023-11-25)"
   sodipodi:docname="Gmail-icon.svg"
   xmlns:inkscape="http://www.inkscape.org/namespaces/inkscape"
   xmlns:sodipodi="http://sodipodi.sourceforge.net/DTD/sodipodi-0.dtd"
   xmlns="http://www.w3.org/2000/svg"
   xmlns:svg="http://www.w3.org/2000/svg">
  <sodipodi:namedview
     id="namedview1"
     pagecolor="#ffffff"
     bordercolor="#000000"
     borderopacity="0.25"
     inkscape:showpageshadow="2"
     inkscape:pageopacity="0.0"
     inkscape:pagecheckerboard="0"
     inkscape:deskcolor="#d1d1d1"
     inkscape:document-units="mm"
     showgrid="false"
     inkscape:zoom="0.51964167"
     inkscape:cx="586.94292"
     inkscape:cy="761.1014"
     inkscape:window-width="1356"
     inkscape:window-height="697"
     inkscape:window-x="0"
     inkscape:window-y="0"
     inkscape:window-maximized="1"
     inkscape:current-layer="layer1" />
  <defs
     id="defs1" />
  <g
     inkscape:label="Layer 1"
     inkscape:groupmode="layer"
     id="layer1">
    <path
       id="rect1"
       style="fill:#ffffff;fill-opacity:1;stroke-width:2.25151;stroke-linecap:round;stroke-linejoin:round"
       d="m 114.18986,83.916182 c 26.50503,0 47.84301,21.337978 47.84301,47.843018 v 255.73057 c 0,0 -21.33798,0.91042 -47.84301,0.91042 -26.505028,0 -47.843011,-21.33799 -47.843011,-47.84301 V 131.7592 c 0,-26.50504 21.337983,-47.843018 47.843011,-47.843018 z"
       sodipodi:nodetypes="sscssss" />
    <path
       id="rect3"
       style="fill:#ffffff;fill-opacity:1;stroke-width:2.25151;stroke-linecap:round;stroke-linejoin:round"
       d="m 394.30352,83.93721 c -26.50502,0 -47.843,21.33799 -47.843,47.84302 v 256.68243 c 0,0 21.33798,-0.0414 47.843,-0.0414 26.50504,0 47.84302,-21.33798 47.84302,-47.84302 V 131.78023 c 0,-26.50503 -21.33798,-47.84302 -47.84302,-47.84302 z"
       sodipodi:nodetypes="sscssss" />
    <path
       id="path4"
       style="fill:#ffffff;fill-opacity:1;stroke-width:2.04979;stroke-linecap:round;stroke-linejoin:round"
       d="m 115.63711,83.572145 c -16.95936,-0.458092 -33.583289,8.164842 -42.694383,23.945725 -13.252501,22.954 -5.442643,52.10269 17.511359,65.35519 l 135.690894,78.34065 c 8.89977,5.13828 18.72572,7.07501 28.20029,6.22564 9.4732,0.84836 19.29735,-1.08816 28.19572,-6.22564 l 135.6909,-78.3413 C 441.1859,159.6199 448.99641,130.47187 435.7439,107.51786 422.4914,84.563858 393.34337,76.753998 370.38937,90.0065 L 254.34331,157.00534 138.29726,90.006498 c -7.17312,-4.141403 -14.95135,-6.226132 -22.66015,-6.434353 z" />
  </g>
</svg>
