<?xml version="1.0" encoding="UTF-8" standalone="no"?>
<!-- Created with Inkscape (http://www.inkscape.org/) -->

<svg
   width="500mm"
   height="500mm"
   viewBox="0 0 500 500"
   version="1.1"
   id="svg1"
   inkscape:version="1.3.2 (091e20e, 2023-11-25)"
   sodipodi:docname="pfp-1.svg"
   xmlns:inkscape="http://www.inkscape.org/namespaces/inkscape"
   xmlns:sodipodi="http://sodipodi.sourceforge.net/DTD/sodipodi-0.dtd"
   xmlns:xlink="http://www.w3.org/1999/xlink"
   xmlns="http://www.w3.org/2000/svg"
   xmlns:svg="http://www.w3.org/2000/svg">
  <sodipodi:namedview
     id="namedview1"
     pagecolor="#ffffff"
     bordercolor="#000000"
     borderopacity="0.25"
     inkscape:showpageshadow="2"
     inkscape:pageopacity="0.0"
     inkscape:pagecheckerboard="0"
     inkscape:deskcolor="#d1d1d1"
     inkscape:document-units="mm"
     showgrid="false"
     inkscape:zoom="0.25982083"
     inkscape:cx="946.8063"
     inkscape:cy="944.8819"
     inkscape:window-width="1356"
     inkscape:window-height="697"
     inkscape:window-x="0"
     inkscape:window-y="0"
     inkscape:window-maximized="1"
     inkscape:current-layer="layer1" />
  <defs
     id="defs1">
    <linearGradient
       id="linearGradient5"
       inkscape:collect="always">
      <stop
         style="stop-color:#003149;stop-opacity:1;"
         offset="0"
         id="stop5" />
      <stop
         style="stop-color:#0072a9;stop-opacity:1;"
         offset="1"
         id="stop6" />
    </linearGradient>
    <linearGradient
       inkscape:collect="always"
       xlink:href="#linearGradient5"
       id="linearGradient6"
       x1="264.5416"
       y1="338.58624"
       x2="240.30624"
       y2="260.78653"
       gradientUnits="userSpaceOnUse" />
  </defs>
  <g
     inkscape:label="Layer 1"
     inkscape:groupmode="layer"
     id="layer1">
    <path
       id="path5"
       style="fill:url(#linearGradient6);fill-opacity:1;stroke-width:3.25747;stroke-linecap:round;stroke-linejoin:round;-inkscape-stroke:none"
       d="m 244.37827,256.60435 c -87.84381,0.0386 -159.198396,68.22873 -159.78636,152.70013 104.13875,37.13104 210.41648,41.20184 319.62334,0 -0.5881,-84.49038 -71.97342,-152.68829 -159.83698,-152.70013 z"
       sodipodi:nodetypes="cccc" />
    <path
       id="path1"
       style="fill:#003149;stroke-width:3;stroke-linecap:round;stroke-linejoin:round;-inkscape-stroke:none;fill-opacity:1"
       d="M 250.25294 1.6458944 A 249.54143 249.54143 0 0 0 235.12363 2.7279989 A 213.07555 213.07555 0 0 1 426.86232 214.72178 A 213.07555 213.07555 0 0 1 213.78695 427.79714 A 213.07555 213.07555 0 0 1 2.0153809 232.95426 A 249.54143 249.54143 0 0 0 0.71158447 251.18725 A 249.54143 249.54143 0 0 0 250.25294 500.72861 A 249.54143 249.54143 0 0 0 499.7943 251.18725 A 249.54143 249.54143 0 0 0 250.25294 1.6458944 z " />
    <path
       id="path4"
       style="fill:#0072ab;fill-opacity:1;stroke-width:3;stroke-linecap:round;stroke-linejoin:round;-inkscape-stroke:none"
       d="M 88.557365,62.341166 A 249.54143,249.54143 0 0 0 77.790174,73.024544 213.07555,213.07555 0 0 1 361.38539,108.78551 213.07555,213.07555 0 0 1 338.71364,409.26549 213.07555,213.07555 0 0 1 51.108128,399.56957 249.54143,249.54143 0 0 0 62.005563,414.24567 249.54143,249.54143 0 0 0 413.91007,440.79747 249.54143,249.54143 0 0 0 440.46187,88.892965 249.54143,249.54143 0 0 0 88.557365,62.341166 Z" />
    <circle
       style="fill:#0072a9;fill-opacity:1;stroke-width:3;stroke-linecap:round;stroke-linejoin:round;-inkscape-stroke:none"
       id="path6"
       cx="234.40166"
       cy="176.44409"
       r="74.026184" />
  </g>
</svg>
