<?xml version="1.0" encoding="UTF-8" standalone="no"?>
<!-- Created with Inkscape (http://www.inkscape.org/) -->

<svg
   width="500mm"
   height="500mm"
   viewBox="0 0 500 500"
   version="1.1"
   id="svg1"
   inkscape:version="1.3.2 (091e20e, 2023-11-25)"
   sodipodi:docname="Crashed Circle Shadow.svg"
   xmlns:inkscape="http://www.inkscape.org/namespaces/inkscape"
   xmlns:sodipodi="http://sodipodi.sourceforge.net/DTD/sodipodi-0.dtd"
   xmlns="http://www.w3.org/2000/svg"
   xmlns:svg="http://www.w3.org/2000/svg">
  <sodipodi:namedview
     id="namedview1"
     pagecolor="#ffffff"
     bordercolor="#000000"
     borderopacity="0.25"
     inkscape:showpageshadow="2"
     inkscape:pageopacity="0.0"
     inkscape:pagecheckerboard="0"
     inkscape:deskcolor="#d1d1d1"
     inkscape:document-units="mm"
     inkscape:zoom="0.25982083"
     inkscape:cx="946.80629"
     inkscape:cy="944.88189"
     inkscape:window-width="1356"
     inkscape:window-height="697"
     inkscape:window-x="0"
     inkscape:window-y="0"
     inkscape:window-maximized="1"
     inkscape:current-layer="layer1" />
  <defs
     id="defs1" />
  <g
     inkscape:label="Layer 1"
     inkscape:groupmode="layer"
     id="layer1">
    <ellipse
       style="fill:#1a1a1a;fill-opacity:1;stroke-width:20.0006;stroke-opacity:0.0670738"
       id="path15"
       cx="218.78467"
       cy="273.58038"
       rx="118.1935"
       ry="118.333" />
    <path
       id="path1"
       style="fill:#ffffff;stroke-width:20;stroke-opacity:0.0670738"
       d="m 239.97803,92.290848 a 118.67836,118.67836 0 0 0 -34.11047,38.462942 l 81.44781,-58.844066 a 118.67836,118.67836 0 0 0 -47.33734,20.381124 z m -40.23734,51.299022 a 118.67836,118.67836 0 0 0 -4.88759,14.92115 L 317.10817,70.184694 a 118.67836,118.67836 0 0 0 -15.67145,-0.0677 z m -6.8015,24.71409 a 118.67836,118.67836 0 0 0 -1.30743,12.33457 L 339.10129,74.095374 a 118.67836,118.67836 0 0 0 -12.10719,-2.64283 z m -1.54737,20.91749 a 118.67836,118.67836 0 0 0 0.33458,11.14825 L 357.78581,80.395814 a 118.67836,118.67836 0 0 0 -10.46895,-3.82642 z m 1.5275,18.6966 a 118.67836,118.67836 0 0 0 2.13869,9.84483 L 373.23898,89.031468 a 118.67836,118.67836 0 0 0 -8.66778,-5.127734 z m 4.09536,16.84075 a 118.67836,118.67836 0 0 0 3.29689,9.00805 L 386.77085,99.054558 a 118.67836,118.67836 0 0 0 -7.50999,-5.96419 z m 6.09916,15.39368 a 118.67836,118.67836 0 0 0 4.2687,8.30596 L 398.48761,110.38968 a 118.67836,118.67836 0 0 0 -6.53903,-6.66571 z m 7.83888,14.13614 a 118.67836,118.67836 0 0 0 2.32755,3.70166 118.67836,118.67836 0 0 0 3.13401,3.74313 L 408.43167,123.00552 a 118.67836,118.67836 0 0 0 -2.75451,-4.01732 118.67836,118.67836 0 0 0 -2.78035,-3.37451 z m 9.84897,12.68455 a 118.67836,118.67836 0 0 0 6.70784,6.54373 L 416.15704,137.22367 a 118.67836,118.67836 0 0 0 -4.10492,-8.42428 z m 11.66063,11.37567 a 118.67836,118.67836 0 0 0 7.80321,5.75235 L 422.19755,152.65973 a 118.67836,118.67836 0 0 0 -3.00954,-9.21565 z m 13.56455,9.99949 a 118.67836,118.67836 0 0 0 9.04226,4.85717 L 426.18945,169.57523 a 118.67836,118.67836 0 0 0 -1.77009,-10.11114 z m 15.74973,8.42137 a 118.67836,118.67836 0 0 0 10.55525,3.76408 L 427.72616,188.26517 a 118.67836,118.67836 0 0 0 -0.25625,-11.20485 z m 18.65771,6.31981 a 118.67836,118.67836 0 0 0 12.61111,2.27876 l 132.7656,-95.91991 a 118.67836,118.67836 0 0 0 1.80044,-12.69076 z m 22.88995,3.26276 a 118.67836,118.67836 0 0 0 15.95336,-0.13593 l 99.09604,-71.59449 a 118.67836,118.67836 0 0 0 5.14563,-15.10757 z m 30.49065,-2.22921 a 118.67836,118.67836 0 0 0 45.1652,-19.43531 118.67836,118.67836 0 0 0 32.83439,-36.91749 z" />
  </g>
</svg>
