<?xml version="1.0" encoding="UTF-8" standalone="no"?>
<!-- Created with Inkscape (http://www.inkscape.org/) -->

<svg
   width="500mm"
   height="500mm"
   viewBox="0 0 500 500"
   version="1.1"
   id="svg1"
   inkscape:version="1.3.2 (091e20e, 2023-11-25)"
   sodipodi:docname="Adams &amp; Abigail.svg"
   xmlns:inkscape="http://www.inkscape.org/namespaces/inkscape"
   xmlns:sodipodi="http://sodipodi.sourceforge.net/DTD/sodipodi-0.dtd"
   xmlns:xlink="http://www.w3.org/1999/xlink"
   xmlns="http://www.w3.org/2000/svg"
   xmlns:svg="http://www.w3.org/2000/svg">
  <sodipodi:namedview
     id="namedview1"
     pagecolor="#ffffff"
     bordercolor="#000000"
     borderopacity="0.25"
     inkscape:showpageshadow="2"
     inkscape:pageopacity="0.0"
     inkscape:pagecheckerboard="0"
     inkscape:deskcolor="#d1d1d1"
     inkscape:document-units="mm"
     showgrid="false"
     inkscape:zoom="0.25982083"
     inkscape:cx="946.80629"
     inkscape:cy="944.88189"
     inkscape:window-width="1356"
     inkscape:window-height="697"
     inkscape:window-x="0"
     inkscape:window-y="0"
     inkscape:window-maximized="1"
     inkscape:current-layer="layer1" />
  <defs
     id="defs1">
    <linearGradient
       id="linearGradient19"
       inkscape:collect="always">
      <stop
         style="stop-color:#8b7900;stop-opacity:1;"
         offset="0"
         id="stop19" />
      <stop
         style="stop-color:#ede000;stop-opacity:1;"
         offset="1"
         id="stop20" />
    </linearGradient>
    <linearGradient
       inkscape:collect="always"
       xlink:href="#linearGradient19"
       id="linearGradient20"
       x1="299.84216"
       y1="386.10281"
       x2="119.44556"
       y2="109.96377"
       gradientUnits="userSpaceOnUse" />
  </defs>
  <g
     inkscape:label="Layer 1"
     inkscape:groupmode="layer"
     id="layer1">
    <text
       xml:space="preserve"
       style="font-size:31.75px;line-height:1.5;font-family:'TeX Gyre DejaVu Math';-inkscape-font-specification:'TeX Gyre DejaVu Math';letter-spacing:0px;word-spacing:0px;opacity:1;fill:#1a1a1a;fill-opacity:1;stroke-width:2.80101;stroke-linecap:round;stroke-linejoin:round"
       x="178.27879"
       y="70.372215"
       id="text14"><tspan
         sodipodi:role="line"
         id="tspan14"
         style="stroke-width:2.801"
         x="178.27879"
         y="70.372215" /></text>
    <g
       id="g31"
       transform="translate(-7.4589995,-51.991123)">
      <g
         id="g30"
         transform="translate(-25.821165)">
        <path
           id="rect15"
           style="fill:url(#linearGradient20);fill-opacity:1;stroke-width:2.30014;stroke-linecap:round;stroke-linejoin:round"
           d="m 217.83735,107.58568 v 0.11524 l -70.0195,261.31635 h -30.22503 v 19.92798 h 94.84589 V 369.01727 H 186.5111 l 62.79771,-234.36296 30.65188,114.39354 19.37918,-72.08242 -18.58956,-69.37613 -0.14728,0.0393 v -0.0429 z" />
        <path
           id="circle19"
           style="fill:#1a1a1a;fill-opacity:1;stroke-width:2.02593;stroke-linecap:round;stroke-linejoin:round"
           d="m 234.65589,246.90721 a 24.165756,24.165756 0 0 0 -8.33761,8.11769 l 19.64527,-11.3422 a 24.165756,24.165756 0 0 0 -11.30766,3.22451 z m -10.12244,11.54991 a 24.165756,24.165756 0 0 0 -1.00124,2.8557 l 29.23005,-16.87597 a 24.165756,24.165756 0 0 0 -2.96254,-0.56721 z m -1.6205,5.61439 a 24.165756,24.165756 0 0 0 -0.29279,2.44668 l 35.04391,-20.23261 a 24.165756,24.165756 0 0 0 -2.2268,-0.992 z m -0.25975,4.82935 a 24.165756,24.165756 0 0 0 0.18695,2.16969 l 38.69353,-22.33972 a 24.165756,24.165756 0 0 0 -1.77927,-1.25037 z m 0.55493,4.35839 a 24.165756,24.165756 0 0 0 0.57989,1.94284 l 40.85466,-23.58745 a 24.165756,24.165756 0 0 0 -1.42617,-1.45424 z m 1.28155,3.93949 a 24.165756,24.165756 0 0 0 0.86407,1.77877 l 41.76941,-24.11558 a 24.165756,24.165756 0 0 0 -1.13348,-1.62322 z m 1.90334,3.57989 a 24.165756,24.165756 0 0 0 1.10843,1.63769 l 41.48389,-23.95074 a 24.165756,24.165756 0 0 0 -0.86408,-1.77876 z m 2.4856,3.24373 a 24.165756,24.165756 0 0 0 1.3924,1.47432 l 39.9972,-23.09239 a 24.165756,24.165756 0 0 0 -0.58059,-1.94302 z m 3.10388,2.88735 a 24.165756,24.165756 0 0 0 1.7842,1.24753 l 37.0578,-21.39533 a 24.165756,24.165756 0 0 0 -0.1883,-2.16892 z m 3.82953,2.46781 a 24.165756,24.165756 0 0 0 2.26528,0.96978 l 32.48852,-18.75726 a 24.165756,24.165756 0 0 0 0.29235,-2.44642 z m 4.96293,1.81404 a 24.165756,24.165756 0 0 0 2.97194,0.56179 l 25.20182,-14.55028 a 24.165756,24.165756 0 0 0 0.99944,-2.85466 z m 6.8329,0.73381 a 24.165756,24.165756 0 0 0 11.21374,-3.16192 24.165756,24.165756 0 0 0 8.34561,-8.13067 z" />
      </g>
      <g
         id="g14"
         transform="matrix(0.7232858,0,0,0.7232858,129.06123,68.698621)">
        <rect
           style="opacity:1;fill:#1a1a1a;fill-opacity:1;stroke-width:3.18013;stroke-linecap:round;stroke-linejoin:round"
           id="rect10"
           width="51.674339"
           height="383.88956"
           x="232.93866"
           y="131.92773"
           transform="rotate(-15)" />
        <rect
           style="opacity:1;fill:#1a1a1a;fill-opacity:1;stroke-width:3.18013;stroke-linecap:round;stroke-linejoin:round"
           id="rect11"
           width="51.674339"
           height="383.88956"
           x="-280.14133"
           y="-5.5516276"
           transform="matrix(-0.96592583,-0.25881905,-0.25881905,0.96592583,0,0)" />
        <rect
           style="opacity:1;fill:#1a1a1a;fill-opacity:1;stroke-width:2.24528;stroke-linecap:round;stroke-linejoin:round"
           id="rect12"
           width="131.13196"
           height="27.552353"
           x="83.481789"
           y="415.21432" />
        <rect
           style="opacity:1;fill:#1a1a1a;fill-opacity:1;stroke-width:2.24528;stroke-linecap:round;stroke-linejoin:round"
           id="rect13"
           width="131.13196"
           height="27.552353"
           x="313.61835"
           y="415.21432" />
        <rect
           style="opacity:1;fill:#1a1a1a;fill-opacity:1;stroke-width:1.8265;stroke-linecap:round;stroke-linejoin:round"
           id="rect14"
           width="86.778717"
           height="27.552353"
           x="222.07742"
           y="53.764557" />
        <circle
           style="opacity:1;fill:#bdae00;fill-opacity:1;stroke-width:2.80101;stroke-linecap:round;stroke-linejoin:round"
           id="path14"
           cx="264.62872"
           cy="275.30539"
           r="33.411076" />
      </g>
    </g>
    <text
       xml:space="preserve"
       style="font-style:normal;font-variant:normal;font-weight:normal;font-stretch:normal;font-size:31.75px;line-height:1.5;font-family:'URW Gothic';-inkscape-font-specification:'URW Gothic';letter-spacing:0px;word-spacing:0px;opacity:1;fill:#1a1a1a;fill-opacity:1;stroke-width:2.80101;stroke-linecap:round;stroke-linejoin:round"
       x="133.27417"
       y="410.99802"
       id="text31"><tspan
         sodipodi:role="line"
         id="tspan31"
         style="font-style:normal;font-variant:normal;font-weight:normal;font-stretch:normal;font-family:'URW Gothic';-inkscape-font-specification:'URW Gothic';fill:#1a1a1a;fill-opacity:1;stroke-width:2.801"
         x="133.27417"
         y="410.99802">Adams &amp; Abigail</tspan></text>
  </g>
</svg>
