<?xml version="1.0" encoding="UTF-8" standalone="no"?>
<!-- Created with Inkscape (http://www.inkscape.org/) -->

<svg
   width="500mm"
   height="500mm"
   viewBox="0 0 500 500"
   version="1.1"
   id="svg1"
   inkscape:version="1.3.2 (091e20e, 2023-11-25)"
   xml:space="preserve"
   sodipodi:docname="Avast.svg"
   xmlns:inkscape="http://www.inkscape.org/namespaces/inkscape"
   xmlns:sodipodi="http://sodipodi.sourceforge.net/DTD/sodipodi-0.dtd"
   xmlns="http://www.w3.org/2000/svg"
   xmlns:svg="http://www.w3.org/2000/svg"><sodipodi:namedview
     id="namedview1"
     pagecolor="#ffffff"
     bordercolor="#000000"
     borderopacity="0.25"
     inkscape:showpageshadow="2"
     inkscape:pageopacity="0.0"
     inkscape:pagecheckerboard="0"
     inkscape:deskcolor="#d1d1d1"
     inkscape:document-units="mm"
     showgrid="false"
     inkscape:zoom="0.25982083"
     inkscape:cx="946.80629"
     inkscape:cy="944.88189"
     inkscape:window-width="1356"
     inkscape:window-height="697"
     inkscape:window-x="0"
     inkscape:window-y="0"
     inkscape:window-maximized="1"
     inkscape:current-layer="g5" /><defs
     id="defs1"><filter
       inkscape:collect="always"
       style="color-interpolation-filters:sRGB"
       id="filter6"
       x="-0.19663439"
       y="-0.1953953"
       width="1.3932688"
       height="1.3907906"><feGaussianBlur
         inkscape:collect="always"
         stdDeviation="2.4744545"
         id="feGaussianBlur6" /></filter></defs><g
     inkscape:label="Layer 1"
     inkscape:groupmode="layer"
     id="layer1"><g
       id="g5"
       transform="matrix(1.5460111,0,0,1.5460111,-410.03434,-153.13649)"><path
         id="path1"
         style="fill:#f67b09;fill-opacity:1;stroke:none;stroke-width:10;stroke-linecap:round;stroke-linejoin:round;stroke-dasharray:none;stroke-opacity:1"
         d="M 490.34595 145.82316 C 471.66321 144.86844 460.05896 164.52448 460.05896 164.52448 C 425.96955 204.29247 389.76283 172.2235 389.72203 172.01884 C 370.54936 155.579 357.74669 179.53076 364.43151 192.71166 C 386.35159 249.70421 329.79939 276.29923 324.01221 284.95544 C 313.30666 299.20644 319.03344 313.32818 329.4285 318.70465 C 339.82356 324.08112 354.36335 320.36373 354.98943 319.96179 C 377.52207 311.40833 413.26238 316.48519 413.26238 316.48519 C 413.26238 316.48519 429.55973 318.08388 460.63255 344.27294 C 491.7054 370.46197 516.29061 351.67739 516.29061 351.67739 C 516.29061 351.67739 557.20737 320.12917 508.63981 281.71983 C 460.07223 243.31053 508.63981 209.5729 508.63981 209.5729 C 515.5519 205.64805 525.09755 191.53125 524.25193 191.2416 C 530.06622 162.04108 509.02869 146.77787 490.34595 145.82316 z " /><circle
         style="opacity:1;fill:#c36207;fill-opacity:1;stroke-width:6.46826;stroke-linecap:round;stroke-linejoin:round"
         id="path2"
         cx="427.35596"
         cy="248.18448"
         r="31.365313" /><g
         id="g6"
         transform="matrix(1.1091282,0,0,1.1091282,-51.238251,-23.016229)"
         style="fill:#070707;fill-opacity:1;filter:url(#filter6);opacity:0.55973865"><rect
           style="fill:#070707;fill-opacity:1;stroke:none;stroke-width:10.4384;stroke-linecap:round;stroke-linejoin:round;stroke-dasharray:none;stroke-opacity:1"
           id="rect3"
           width="7.8056936"
           height="30.393211"
           x="438.42834"
           y="229.66"
           ry="4.2525578" /><path
           id="path4"
           style="fill:#070707;fill-opacity:1;stroke:none;stroke-width:10;stroke-linecap:round;stroke-linejoin:round;stroke-dasharray:none;stroke-opacity:1"
           d="m 429.44652,231.4427 a 13.4139,13.4139 0 0 0 -13.41417,13.41416 13.4139,13.4139 0 0 0 13.41417,13.41366 13.4139,13.4139 0 0 0 13.41365,-13.41366 13.4139,13.4139 0 0 0 -13.41365,-13.41416 z m 0.7245,5.13714 a 8.2769661,8.2769661 0 0 1 8.27702,8.27701 8.2769661,8.2769661 0 0 1 -8.27702,8.2765 8.2769661,8.2769661 0 0 1 -8.27701,-8.2765 8.2769661,8.2769661 0 0 1 8.27701,-8.27701 z" /></g><g
         id="g4"
         transform="translate(-3.7772371,3.3278694)"
         style="fill:#ffffff;fill-opacity:1"><rect
           style="fill:#ffffff;fill-opacity:1;stroke:none;stroke-width:10.4384;stroke-linecap:round;stroke-linejoin:round;stroke-dasharray:none;stroke-opacity:1"
           id="rect2"
           width="7.8056936"
           height="30.393211"
           x="438.42834"
           y="229.66"
           ry="4.2525578" /><path
           id="path3"
           style="fill:#ffffff;fill-opacity:1;stroke:none;stroke-width:10;stroke-linecap:round;stroke-linejoin:round;stroke-dasharray:none;stroke-opacity:1"
           d="m 429.44652,231.4427 a 13.4139,13.4139 0 0 0 -13.41417,13.41416 13.4139,13.4139 0 0 0 13.41417,13.41366 13.4139,13.4139 0 0 0 13.41365,-13.41366 13.4139,13.4139 0 0 0 -13.41365,-13.41416 z m 0.7245,5.13714 a 8.2769661,8.2769661 0 0 1 8.27702,8.27701 8.2769661,8.2769661 0 0 1 -8.27702,8.2765 8.2769661,8.2769661 0 0 1 -8.27701,-8.2765 8.2769661,8.2769661 0 0 1 8.27701,-8.27701 z" /></g></g></g></svg>
