<?xml version="1.0" encoding="UTF-8" standalone="no"?>
<!-- Created with Inkscape (http://www.inkscape.org/) -->

<svg
   width="500mm"
   height="500mm"
   viewBox="0 0 500 500"
   version="1.1"
   id="svg1"
   inkscape:version="1.3.2 (091e20e, 2023-11-25)"
   sodipodi:docname="BUG HUNTERS.svg"
   xmlns:inkscape="http://www.inkscape.org/namespaces/inkscape"
   xmlns:sodipodi="http://sodipodi.sourceforge.net/DTD/sodipodi-0.dtd"
   xmlns="http://www.w3.org/2000/svg"
   xmlns:svg="http://www.w3.org/2000/svg">
  <sodipodi:namedview
     id="namedview1"
     pagecolor="#ffffff"
     bordercolor="#000000"
     borderopacity="0.25"
     inkscape:showpageshadow="2"
     inkscape:pageopacity="0.0"
     inkscape:pagecheckerboard="0"
     inkscape:deskcolor="#d1d1d1"
     inkscape:document-units="mm"
     showgrid="false"
     inkscape:zoom="0.25982083"
     inkscape:cx="946.80629"
     inkscape:cy="944.88189"
     inkscape:window-width="1356"
     inkscape:window-height="697"
     inkscape:window-x="0"
     inkscape:window-y="0"
     inkscape:window-maximized="1"
     inkscape:current-layer="layer1" />
  <defs
     id="defs1" />
  <g
     inkscape:label="Layer 1"
     inkscape:groupmode="layer"
     id="layer1">
    <g
       id="g19"
       transform="translate(1.822184,-22.223945)">
      <g
         id="g3"
         transform="matrix(0.70678531,0,0,0.70678531,67.113947,76.880034)">
        <path
           id="path1"
           style="fill:#1a1a1a;fill-opacity:1;stroke:none;stroke-width:25.8711;stroke-linecap:round;stroke-linejoin:round;stroke-opacity:1"
           d="M 378.78185,125.00891 A 107.08516,107.08516 0 0 0 271.6964,232.09436 107.08516,107.08516 0 0 0 378.78185,339.1793 107.08516,107.08516 0 0 0 485.86679,232.09436 107.08516,107.08516 0 0 0 378.78185,125.00891 Z m 0,29.32069 a 77.764481,77.764481 0 0 1 77.76425,77.76476 77.764481,77.764481 0 0 1 -77.76425,77.76425 77.764481,77.764481 0 0 1 -77.76476,-77.76425 77.764481,77.764481 0 0 1 77.76476,-77.76476 z" />
        <path
           id="path2"
           style="fill:#1a1a1a;fill-opacity:1;stroke:none;stroke-width:25.8711;stroke-linecap:round;stroke-linejoin:round;stroke-opacity:1"
           d="M 130.05607,125.00891 A 107.08516,107.08516 0 0 0 22.970618,232.09436 107.08516,107.08516 0 0 0 130.05607,339.1793 107.08516,107.08516 0 0 0 237.14101,232.09436 107.08516,107.08516 0 0 0 130.05607,125.00891 Z m 0,29.32069 a 77.764481,77.764481 0 0 1 77.76425,77.76476 77.764481,77.764481 0 0 1 -77.76425,77.76425 77.764481,77.764481 0 0 1 -77.764762,-77.76425 77.764481,77.764481 0 0 1 77.764762,-77.76476 z" />
        <rect
           style="fill:#1a1a1a;fill-opacity:1;stroke:none;stroke-width:20.2846;stroke-linecap:round;stroke-linejoin:round;stroke-opacity:1"
           id="rect2"
           width="148.46416"
           height="29.231251"
           x="265.74228"
           y="-46.286179"
           transform="rotate(47.625279)" />
        <rect
           style="fill:#1a1a1a;fill-opacity:1;stroke:none;stroke-width:20.2846;stroke-linecap:round;stroke-linejoin:round;stroke-opacity:1"
           id="rect3"
           width="148.46416"
           height="29.231251"
           x="-71.556122"
           y="-358.52771"
           transform="matrix(0.67397651,-0.73875277,-0.73875277,-0.67397651,0,0)" />
      </g>
      <g
         id="g6">
        <rect
           style="fill:#ff1616;fill-opacity:1;stroke:none;stroke-width:13.8466;stroke-linecap:round;stroke-linejoin:round;stroke-opacity:1"
           id="rect5"
           width="8.5746279"
           height="92.257355"
           x="235.53156"
           y="-380.30893"
           transform="rotate(90)" />
        <rect
           style="fill:#ff1616;fill-opacity:1;stroke:none;stroke-width:13.8466;stroke-linecap:round;stroke-linejoin:round;stroke-opacity:1"
           id="rect6"
           width="8.5746279"
           height="92.257355"
           x="331.71048"
           y="193.69019" />
        <circle
           style="fill:#ff1616;fill-opacity:1;stroke:none;stroke-width:20;stroke-linecap:round;stroke-linejoin:round;stroke-opacity:1"
           id="path5"
           cx="336.05817"
           cy="239.81886"
           r="7.2786517" />
        <circle
           style="fill:none;fill-opacity:1;stroke:#ff1616;stroke-width:10;stroke-linecap:round;stroke-linejoin:round;stroke-dasharray:none;stroke-opacity:1"
           id="circle6"
           cx="336.05817"
           cy="239.81886"
           r="31.944399" />
      </g>
      <g
         id="g18"
         transform="translate(0,-4.5331179)">
        <rect
           style="fill:#a216ff;fill-opacity:1;stroke:none;stroke-width:15.626;stroke-linecap:round;stroke-linejoin:round;stroke-dasharray:none;stroke-opacity:1"
           id="rect7"
           width="27.66268"
           height="53.697136"
           x="144.28142"
           y="217.34747"
           ry="13.83134" />
        <rect
           style="fill:#a216ff;fill-opacity:1;stroke:none;stroke-width:14.6242;stroke-linecap:round;stroke-linejoin:round;stroke-dasharray:none;stroke-opacity:1"
           id="rect8"
           width="19.269539"
           height="5.0917425"
           x="159.68414"
           y="229.64165"
           ry="2.5458713" />
        <rect
           style="fill:#a216ff;fill-opacity:1;stroke:none;stroke-width:14.6242;stroke-linecap:round;stroke-linejoin:round;stroke-dasharray:none;stroke-opacity:1"
           id="rect9"
           width="19.269539"
           height="5.0917425"
           x="96.033226"
           y="-271.74451"
           ry="2.5458713"
           transform="rotate(120)" />
        <rect
           style="fill:#a216ff;fill-opacity:1;stroke:none;stroke-width:14.6242;stroke-linecap:round;stroke-linejoin:round;stroke-dasharray:none;stroke-opacity:1"
           id="rect12"
           width="19.269539"
           height="5.0917425"
           x="169.83144"
           y="241.63477"
           ry="2.5458713" />
        <rect
           style="fill:#a216ff;fill-opacity:1;stroke:none;stroke-width:14.6242;stroke-linecap:round;stroke-linejoin:round;stroke-dasharray:none;stroke-opacity:1"
           id="rect10"
           width="19.269539"
           height="5.0917425"
           x="159.68414"
           y="-258.70792"
           ry="2.5458713"
           transform="scale(1,-1)" />
        <rect
           style="fill:#a216ff;fill-opacity:1;stroke:none;stroke-width:14.6242;stroke-linecap:round;stroke-linejoin:round;stroke-dasharray:none;stroke-opacity:1"
           id="rect11"
           width="19.269539"
           height="5.0917425"
           x="-326.88992"
           y="-27.569714"
           ry="2.5458713"
           transform="matrix(-0.50000001,-0.8660254,-0.8660254,0.50000001,0,0)" />
        <rect
           style="fill:#a216ff;fill-opacity:1;stroke:none;stroke-width:14.6242;stroke-linecap:round;stroke-linejoin:round;stroke-dasharray:none;stroke-opacity:1"
           id="rect13"
           width="19.269539"
           height="5.0917425"
           x="-157.05748"
           y="229.64165"
           ry="2.5458713"
           transform="scale(-1,1)" />
        <rect
           style="fill:#a216ff;fill-opacity:1;stroke:none;stroke-width:14.6242;stroke-linecap:round;stroke-linejoin:round;stroke-dasharray:none;stroke-opacity:1"
           id="rect14"
           width="19.269539"
           height="5.0917425"
           x="254.40404"
           y="2.5617831"
           ry="2.5458713"
           transform="matrix(0.5,0.8660254,0.8660254,-0.5,0,0)" />
        <rect
           style="fill:#a216ff;fill-opacity:1;stroke:none;stroke-width:14.6242;stroke-linecap:round;stroke-linejoin:round;stroke-dasharray:none;stroke-opacity:1"
           id="rect15"
           width="19.269539"
           height="5.0917425"
           x="-146.91019"
           y="241.63477"
           ry="2.5458713"
           transform="scale(-1,1)" />
        <rect
           style="fill:#a216ff;fill-opacity:1;stroke:none;stroke-width:14.6242;stroke-linecap:round;stroke-linejoin:round;stroke-dasharray:none;stroke-opacity:1"
           id="rect16"
           width="19.269539"
           height="5.0917425"
           x="-157.05748"
           y="-258.70792"
           ry="2.5458713"
           transform="scale(-1)" />
        <rect
           style="fill:#a216ff;fill-opacity:1;stroke:none;stroke-width:14.6242;stroke-linecap:round;stroke-linejoin:round;stroke-dasharray:none;stroke-opacity:1"
           id="rect17"
           width="19.269539"
           height="5.0917425"
           x="-168.51912"
           y="246.73657"
           ry="2.5458713"
           transform="rotate(-59.999999)" />
      </g>
    </g>
    <text
       xml:space="preserve"
       style="font-style:normal;font-variant:normal;font-weight:normal;font-stretch:normal;font-size:48.3333px;line-height:1;font-family:THE-GLITCH;-inkscape-font-specification:THE-GLITCH;letter-spacing:0px;word-spacing:0px;fill:#00be3b;fill-opacity:1;stroke:none;stroke-width:21.4075;stroke-linecap:round;stroke-linejoin:round;stroke-dasharray:none;stroke-opacity:1"
       x="101.53201"
       y="380.60291"
       id="text19"><tspan
         sodipodi:role="line"
         id="tspan19"
         style="font-style:normal;font-variant:normal;font-weight:normal;font-stretch:normal;font-family:THE-GLITCH;-inkscape-font-specification:THE-GLITCH;stroke-width:21.4075;fill:#00be3b;fill-opacity:1"
         x="101.53201"
         y="380.60291">BUG HUNTERS</tspan></text>
  </g>
</svg>
