<?xml version="1.0" encoding="UTF-8" standalone="no"?>
<!-- Created with Inkscape (http://www.inkscape.org/) -->

<svg
   width="500mm"
   height="500mm"
   viewBox="0 0 500 500"
   version="1.1"
   id="svg1"
   inkscape:version="1.3.2 (091e20e, 2023-11-25)"
   sodipodi:docname="Daily-Logo-Challenge.svg"
   xmlns:inkscape="http://www.inkscape.org/namespaces/inkscape"
   xmlns:sodipodi="http://sodipodi.sourceforge.net/DTD/sodipodi-0.dtd"
   xmlns="http://www.w3.org/2000/svg"
   xmlns:svg="http://www.w3.org/2000/svg">
  <sodipodi:namedview
     id="namedview1"
     pagecolor="#ffffff"
     bordercolor="#000000"
     borderopacity="0.25"
     inkscape:showpageshadow="2"
     inkscape:pageopacity="0.0"
     inkscape:pagecheckerboard="0"
     inkscape:deskcolor="#d1d1d1"
     inkscape:document-units="mm"
     showgrid="false"
     inkscape:zoom="0.25982083"
     inkscape:cx="946.80629"
     inkscape:cy="944.88189"
     inkscape:window-width="1356"
     inkscape:window-height="697"
     inkscape:window-x="0"
     inkscape:window-y="0"
     inkscape:window-maximized="1"
     inkscape:current-layer="layer1" />
  <defs
     id="defs1" />
  <g
     inkscape:label="Layer 1"
     inkscape:groupmode="layer"
     id="layer1">
    <g
       id="g11"
       transform="matrix(0.6544507,0,0,0.6544507,74.623027,73.176711)">
      <path
         id="path5"
         style="fill:#b5b5b5;fill-opacity:1;stroke-width:2.52938;stroke-linecap:square"
         d="M 53.653016,165.09407 C 124.84949,233.80498 171.41153,326.28253 222.88383,414.02276 263.47078,350.02883 388.83629,301.20223 471.81253,244.79196 402.66561,160.68896 344.12342,77.524132 302.58172,-4.1367313 209.62731,73.603306 134.44164,113.36012 53.653016,165.09407 Z m 37.752902,-5.85978 c 5.164233,-3.51099 12.196902,-2.1708 15.707912,2.99342 3.51112,5.16442 2.1707,12.19732 -2.99386,15.70821 -5.164395,3.51076 -12.19699,2.17023 -15.70777,-2.99415 -3.510654,-5.16423 -2.170346,-12.19659 2.993718,-15.70748 z m 48.751792,-33.14325 c 5.16424,-3.51099 12.1969,-2.1708 15.70791,2.99343 3.51113,5.16441 2.1707,12.19731 -2.99386,15.70821 -5.16439,3.51076 -12.197,2.17025 -15.70778,-2.99414 -3.51065,-5.16424 -2.17032,-12.19661 2.99373,-15.7075 z m 48.75178,-33.143236 c 5.16424,-3.511 12.19692,-2.17079 15.70793,2.99343 3.5111,5.164406 2.17069,12.197306 -2.99386,15.708206 -5.1644,3.51076 -12.197,2.17024 -15.70779,-2.99416 -3.51065,-5.16422 -2.17033,-12.196586 2.99372,-15.707476 z m 48.75181,-33.14325 c 5.16423,-3.510985 12.1969,-2.170787 15.70791,2.993434 3.51111,5.164405 2.17069,12.197311 -2.99386,15.708197 -5.16442,3.511121 -12.19731,2.170698 -15.70821,-2.99386 -3.51076,-5.164384 -2.17023,-12.196985 2.99416,-15.707771 z m 48.75178,-33.14324 c 5.16422,-3.510647 12.19658,-2.170334 15.70749,2.993727 3.51099,5.164232 2.17078,12.196896 -2.99344,15.707909 -5.16441,3.511113 -12.19731,2.170698 -15.70821,-2.99386 -3.51076,-5.164389 -2.17022,-12.197001 2.99416,-15.707776 z"
         sodipodi:nodetypes="cccccssssssssssssssscscscsssss" />
      <path
         id="path4"
         style="fill:#d6d6d6;fill-opacity:1;stroke-width:2.52938;stroke-linecap:square"
         d="M 171.97987,23.001978 C 155.71593,120.60122 105.90964,211.37265 62.789207,303.50503 138.51593,300.67899 249.79123,376.29881 343.29225,412.6957 373.39947,308.06222 408.74356,212.6978 452.48292,132.19266 335.75322,99.662466 260.38825,60.246602 171.97987,23.001978 Z m 26.22304,27.784363 c 5.8194,2.265161 8.7007,8.818986 6.43556,14.638395 -2.26524,5.819603 -8.81938,8.700858 -14.63889,6.43537 -5.8193,-2.265426 -8.70028,-8.819385 -6.43488,-14.638691 2.26535,-5.819119 8.81899,-8.700154 14.63821,-6.435074 z m 54.93552,21.384595 c 5.8194,2.265167 8.7007,8.81899 6.43555,14.6384 -2.26523,5.81961 -8.81938,8.70085 -14.63889,6.43537 -5.8193,-2.26542 -8.7003,-8.81938 -6.43489,-14.63869 2.26536,-5.819123 8.81901,-8.700146 14.63823,-6.43508 z m 54.9355,21.3846 c 5.81941,2.26516 8.70071,8.819004 6.43557,14.638414 -2.26525,5.81959 -8.81939,8.70084 -14.63889,6.43537 -5.81931,-2.26543 -8.7003,-8.81939 -6.43489,-14.638714 2.26535,-5.81911 8.819,-8.70014 14.63821,-6.43507 z m 54.93553,21.384614 c 5.81939,2.26516 8.70069,8.81899 6.43555,14.6384 -2.26524,5.81959 -8.81939,8.70084 -14.63888,6.43536 -5.81961,-2.26524 -8.70085,-8.81938 -6.43537,-14.63889 2.26542,-5.81929 8.81938,-8.70028 14.6387,-6.43487 z m 54.9355,21.38459 c 5.81911,2.26535 8.70014,8.81899 6.43507,14.63822 -2.26516,5.8194 -8.81899,8.70069 -14.6384,6.43555 -5.8196,-2.26524 -8.70085,-8.81938 -6.43537,-14.63889 2.26542,-5.8193 8.8194,-8.70028 14.6387,-6.43488 z"
         sodipodi:nodetypes="cccccssssssssssssssscscscsssss" />
      <path
         id="rect1"
         style="fill:#ececec;stroke-width:2.52938;stroke-linecap:square"
         d="m 79.77599,137.01922 c 44.73083,88.2569 58.39627,190.88913 78.25384,290.65598 59.3261,-47.14804 193.77065,-52.16922 290.65598,-78.25384 C 410.93814,247.29535 382.9013,149.53281 370.43197,58.765387 257.12629,101.72883 173.06133,114.63511 79.77599,137.01922 Z m 37.58713,6.84297 c 6.02995,-1.62359 12.23439,1.94845 13.858,7.9784 1.62365,6.03016 -1.94868,12.23475 -7.97891,13.85814 -6.03003,1.62332 -12.23429,-1.94902 -13.85763,-7.97904 -1.62327,-6.02984 1.94878,-12.23395 7.97854,-13.8575 z m 56.92393,-15.32574 c 6.02996,-1.62359 12.23439,1.94846 13.858,7.97841 1.62365,6.03016 -1.94868,12.23474 -7.97891,13.85814 -6.03003,1.62332 -12.2343,-1.94901 -13.85764,-7.97904 -1.62327,-6.02984 1.9488,-12.23395 7.97855,-13.85751 z m 56.92392,-15.32573 c 6.02996,-1.62359 12.2344,1.94846 13.85801,7.97841 1.62364,6.03016 -1.94869,12.23474 -7.97891,13.85814 -6.03003,1.62332 -12.2343,-1.94902 -13.85764,-7.97905 -1.62327,-6.02983 1.94879,-12.23394 7.97854,-13.8575 z m 56.92394,-15.325731 c 6.02995,-1.62359 12.23439,1.948458 13.858,7.978411 1.62364,6.03015 -1.94869,12.23474 -7.97891,13.85813 -6.03016,1.62365 -12.23474,-1.94868 -13.85814,-7.97891 -1.62332,-6.03002 1.94902,-12.234292 7.97905,-13.857631 z m 56.92392,-15.325731 c 6.02983,-1.623268 12.23394,1.948786 13.8575,7.978543 1.62359,6.029955 -1.94846,12.234389 -7.97841,13.857999 -6.03016,1.62365 -12.23474,-1.94868 -13.85814,-7.978907 -1.62332,-6.030027 1.94903,-12.234296 7.97905,-13.857635 z"
         sodipodi:nodetypes="cccccssssssssssssssscscscsssss" />
      <path
         style="fill:#b5b5b5;fill-opacity:1;stroke-width:2.64583;stroke-linecap:square;-inkscape-stroke:none"
         d="m 349.24423,289.5781 c -5.52541,21.63183 -24.38361,37.42284 -42.50667,48.78271 -33.89287,14.30522 -71.63419,-4.59087 -96.18079,-28.22593 -26.29793,-26.71919 -33.41563,-72.08121 -10.20012,-103.00624 9.69724,-14.07049 23.85371,-24.01812 36.64597,-34.81378 15.24014,-8.0738 33.24708,-5.3827 49.87278,-6.36389 25.24564,-0.0567 51.91893,12.67591 60.63419,37.84104 14.03445,26.65015 13.80862,58.49974 1.73464,85.78609 z"
         id="path6" />
      <path
         style="fill:#a3a3a3;fill-opacity:1;stroke-width:2.64583;stroke-linecap:square;-inkscape-stroke:none"
         d="m 292.80376,310.75558 c 22.13977,-10.98344 48.23332,-32.97339 36.83977,-60.63533 -3.77656,-24.64685 -16.76693,-54.4462 -44.82531,-57.43809 -21.65482,-2.60062 -47.52425,7.34492 -54.27011,29.77393 -9.56576,17.13666 -10.85483,39.10887 3.22503,54.24179 13.94833,18.71572 35.90871,31.19988 59.03062,34.0577 z"
         id="path7" />
      <path
         style="fill:#8f8f8f;fill-opacity:1;stroke-width:2.64583;stroke-linecap:square;-inkscape-stroke:none"
         d="m 310.08139,264.85775 c 1.9445,16.42377 -17.85232,21.22293 -30.50289,18.60993 -16.59019,-0.53605 -33.92091,-12.20902 -33.10043,-30.36799 -0.99356,-15.70785 8.50512,-35.20814 25.09424,-38.14509 17.25992,-0.40725 30.82645,15.51111 38.0748,29.68533 2.72856,6.51438 1.01645,13.48946 0.43428,20.21782 z"
         id="path8" />
      <path
         style="fill:#ff3737;fill-opacity:1;stroke-width:2.64583;stroke-linecap:square;-inkscape-stroke:none"
         d="m 287.24108,257.24572 c -3.67641,4.94244 -5.13686,3.30122 -10.1446,0.69097 -6.09703,-3.17804 -7.57803,-7.68275 -5.65044,-13.91912 0.71805,-2.32314 2.32093,-4.40314 4.65011,-5.34929 2.76195,-1.12196 5.45338,-0.23265 7.89424,1.06804 5.83763,3.11074 6.40315,5.34324 6.73883,12.0786 0.15703,3.15131 0.39642,1.30317 -3.48814,5.4308 z"
         id="path9" />
      <path
         style="fill:#e34b4b;fill-opacity:1;stroke-width:2.64583;stroke-linecap:square;-inkscape-stroke:none"
         d="m 484.92648,103.1944 c 0.21111,-4.290159 0.25537,-8.609241 0.76498,-12.89593 0.0888,-0.746884 0.31012,-1.473729 0.40365,-2.220037 0.0443,-0.353438 0.0257,-0.712705 0.0673,-1.066488 0.008,-0.06673 0.098,-0.209616 0.0316,-0.199067 -0.54912,0.0873 -0.92379,0.694423 -1.18351,1.126567 -0.49374,0.821531 -0.66138,1.813261 -0.94184,2.720636 -0.51757,1.674448 -1.35622,3.455853 -2.32095,4.918909 -0.58311,0.884319 -2.01554,3.251287 -2.71433,3.929515 -0.0755,0.07328 -0.54187,-3.531476 -0.91244,-3.455038 -1.67341,0.345173 -1.53316,1.995117 -1.97943,3.212068 -0.40391,1.101485 -0.92663,2.229735 -1.54731,3.221235 -1.20177,1.91973 -2.58794,3.9832 -4.03643,5.72421 -0.64979,0.78102 -1.06569,-1.43932 -1.44576,-0.91559 -0.66694,0.91908 -0.54462,2.76529 -0.80177,3.86351 -0.50909,2.17404 -1.41999,4.92144 -2.94672,6.6022"
         id="path10" />
      <path
         id="rect9"
         style="fill:#1a1a1a;stroke-width:2.23568;stroke-linecap:square"
         transform="rotate(-29.968876)"
         d="m 117.81631,352.57712 254.07585,-22.31827 c 3.26299,2.67435 3.32081,5.932 1.35739,9.5575 L 117.81631,358.0448 c -0.89859,-1.74329 -1.381,-3.52329 0,-5.46768 z"
         sodipodi:nodetypes="ccccc" />
      <path
         style="fill:#db2222;fill-opacity:1;stroke-width:2.64583;stroke-linecap:square;-inkscape-stroke:none"
         d="m 471.03511,121.12381 c 4.0091,0.37966 8.11382,1.30524 12.06405,-0.0239 0.48593,-0.1635 0.8836,-0.30925 1.2782,-0.63118 0.46736,-0.3813 0.82471,-1.68798 0.009,-1.90927 -0.27755,-0.0753 -5.45986,0.36837 -1.63753,-0.7505 0.2119,-0.062 0.42452,-0.12206 0.6391,-0.17412 1.20663,-0.29278 9.05497,-2.13012 9.68322,-3.30284 0.3815,-0.71208 -0.34748,-1.40859 -0.99391,-1.58784 -0.50077,-0.13888 -1.07357,-0.0723 -1.58094,-0.0218 -0.19055,0.019 -0.71612,0.0874 -0.57308,-0.0399 1.94728,-1.73338 4.60727,-2.77464 6.89234,-3.97054 0.81828,-0.42825 1.64092,-0.84886 2.45549,-1.28414 0.14068,-0.0752 0.50517,-0.14338 0.39971,-0.26302 -0.73552,-0.83443 -4.80407,0.76368 -5.99406,0.94136 -0.64894,0.0969 -1.31646,0.0988 -1.96937,0.1508"
         id="path11" />
    </g>
    <text
       xml:space="preserve"
       style="font-style:normal;font-variant:normal;font-weight:normal;font-stretch:normal;font-size:55.8296px;line-height:1;font-family:'RED BURGER';-inkscape-font-specification:'RED BURGER';letter-spacing:4.65246px;word-spacing:0px;fill:#ff3737;fill-opacity:1;stroke-width:4.65246;stroke-linecap:square;-inkscape-stroke:none"
       x="201.23848"
       y="424.5567"
       id="text11"><tspan
         sodipodi:role="line"
         id="tspan11"
         style="font-style:normal;font-variant:normal;font-weight:normal;font-stretch:normal;font-family:'RED BURGER';-inkscape-font-specification:'RED BURGER';fill:#ff3737;fill-opacity:1;stroke-width:4.65246"
         x="201.23848"
         y="424.5567">DLC</tspan></text>
    <text
       xml:space="preserve"
       style="font-style:normal;font-variant:normal;font-weight:normal;font-stretch:normal;font-size:20.5085px;line-height:1;font-family:Oswald;-inkscape-font-specification:Oswald;letter-spacing:0px;word-spacing:0px;fill:#ff3737;fill-opacity:1;stroke-width:1.70904;stroke-linecap:square;-inkscape-stroke:none"
       x="169.68864"
       y="450.87952"
       id="text12"><tspan
         sodipodi:role="line"
         id="tspan12"
         style="font-style:normal;font-variant:normal;font-weight:normal;font-stretch:normal;font-family:Oswald;-inkscape-font-specification:Oswald;letter-spacing:0px;stroke-width:1.70904"
         x="169.68864"
         y="450.87952"><tspan
           style="fill:#f36565;fill-opacity:1"
           id="tspan14">@</tspan><tspan
           style="fill:#ff2020;fill-opacity:1"
           id="tspan15">Daily Logo Challenge</tspan></tspan></text>
  </g>
</svg>
