<?xml version="1.0" encoding="UTF-8" standalone="no"?>
<!-- Created with Inkscape (http://www.inkscape.org/) -->

<svg
   width="500mm"
   height="500mm"
   viewBox="0 0 500 500"
   version="1.1"
   id="svg1"
   inkscape:version="1.3.2 (091e20e, 2023-11-25)"
   sodipodi:docname="DAVIA.svg"
   xmlns:inkscape="http://www.inkscape.org/namespaces/inkscape"
   xmlns:sodipodi="http://sodipodi.sourceforge.net/DTD/sodipodi-0.dtd"
   xmlns:xlink="http://www.w3.org/1999/xlink"
   xmlns="http://www.w3.org/2000/svg"
   xmlns:svg="http://www.w3.org/2000/svg">
  <sodipodi:namedview
     id="namedview1"
     pagecolor="#ffffff"
     bordercolor="#000000"
     borderopacity="0.25"
     inkscape:showpageshadow="2"
     inkscape:pageopacity="0.0"
     inkscape:pagecheckerboard="0"
     inkscape:deskcolor="#d1d1d1"
     inkscape:document-units="mm"
     showgrid="false"
     inkscape:zoom="0.25982083"
     inkscape:cx="946.80629"
     inkscape:cy="944.88189"
     inkscape:window-width="1356"
     inkscape:window-height="697"
     inkscape:window-x="0"
     inkscape:window-y="0"
     inkscape:window-maximized="1"
     inkscape:current-layer="layer1" />
  <defs
     id="defs1">
    <linearGradient
       id="linearGradient9"
       inkscape:collect="always">
      <stop
         style="stop-color:#989d00;stop-opacity:1;"
         offset="0"
         id="stop9" />
      <stop
         style="stop-color:#ebec00;stop-opacity:1;"
         offset="1"
         id="stop10" />
    </linearGradient>
    <linearGradient
       id="linearGradient5"
       inkscape:collect="always">
      <stop
         style="stop-color:#938900;stop-opacity:1;"
         offset="0"
         id="stop5" />
      <stop
         style="stop-color:#eeef00;stop-opacity:1;"
         offset="1"
         id="stop6" />
    </linearGradient>
    <linearGradient
       inkscape:collect="always"
       xlink:href="#linearGradient5"
       id="linearGradient6"
       x1="108.9592"
       y1="387.82443"
       x2="403.90591"
       y2="181.99055"
       gradientUnits="userSpaceOnUse"
       gradientTransform="matrix(0.9524888,0,0,0.9524888,5.9314535,-27.559571)" />
    <linearGradient
       inkscape:collect="always"
       xlink:href="#linearGradient9"
       id="linearGradient10"
       x1="173.20639"
       y1="255.1461"
       x2="342.74213"
       y2="46.417362"
       gradientUnits="userSpaceOnUse"
       gradientTransform="matrix(0.9524888,0,0,0.9524888,5.9314535,-25.14071)" />
  </defs>
  <g
     inkscape:label="Layer 1"
     inkscape:groupmode="layer"
     id="layer1">
    <rect
       style="fill:#191919;fill-opacity:1;stroke-width:2.80101;stroke-linecap:round;stroke-linejoin:round"
       id="rect9"
       width="506.62463"
       height="505.7608"
       x="-2.7927313"
       y="-2.2980638" />
    <g
       id="g3">
      <path
         id="path6"
         style="fill:#948900;fill-opacity:1;stroke-width:2.66793;stroke-linecap:round;stroke-linejoin:round"
         d="m 381.02769,139.25033 a 141.15091,141.15091 0 0 1 -130.5081,88.17932 141.15091,141.15091 0 0 1 -130.36291,-87.789 141.15091,141.15091 0 0 0 -10.78781,53.36171 141.15091,141.15091 0 0 0 141.15072,141.15072 141.15091,141.15091 0 0 0 141.15071,-141.15072 141.15091,141.15091 0 0 0 -10.64261,-53.75203 z" />
      <path
         style="fill:#3f3a00;fill-opacity:1;stroke-width:2.80101;stroke-linecap:round;stroke-linejoin:round"
         d="m 171.11005,202.80567 -7.04086,8.88059 c 0,0 83.93216,65.44028 174.19165,-2.95217 -0.15459,0.29434 -5.31685,-8.27431 -5.31685,-8.27431 -0.24931,-0.0653 -73.88952,58.93443 -161.83394,2.34589 z"
         id="path3"
         sodipodi:nodetypes="ccccc" />
    </g>
    <path
       id="path1"
       style="fill:url(#linearGradient6);fill-opacity:1;stroke-width:2.66793;stroke-linecap:round;stroke-linejoin:round"
       d="M 381.02769,146.24844 A 141.15091,141.15091 0 0 1 250.51959,234.42777 141.15091,141.15091 0 0 1 120.15668,146.63876 141.15091,141.15091 0 0 0 109.36887,200.00048 141.15091,141.15091 0 0 0 250.51959,341.1512 141.15091,141.15091 0 0 0 391.6703,200.00048 141.15091,141.15091 0 0 0 381.02769,146.24844 Z" />
    <path
       id="path2"
       style="fill:url(#linearGradient10);fill-opacity:1;stroke-width:1.91583;stroke-linecap:round;stroke-linejoin:round"
       inkscape:transform-center-x="2.6618282e-06"
       inkscape:transform-center-y="-33.010981"
       d="m 250.51959,17.397255 -39.15795,131.528955 -12.53221,-42.09497 -24.00618,80.6347 a 141.15091,141.15091 0 0 0 75.69634,22.52953 141.15091,141.15091 0 0 0 78.77069,-24.61159 l -23.38599,-78.55264 -14.37949,48.2993 z" />
    <text
       xml:space="preserve"
       style="font-style:normal;font-variant:normal;font-weight:normal;font-stretch:normal;font-size:31.75px;line-height:1.5;font-family:Palm;-inkscape-font-specification:Palm;letter-spacing:0px;word-spacing:0px;fill:#948900;fill-opacity:1;stroke-width:2.80101;stroke-linecap:round;stroke-linejoin:round"
       x="151.79453"
       y="398.85583"
       id="text11"><tspan
         sodipodi:role="line"
         id="tspan11"
         style="stroke-width:2.801"
         x="151.79453"
         y="398.85583" /></text>
    <path
       id="text3"
       style="font-style:normal;font-variant:normal;font-weight:normal;font-stretch:normal;font-size:58.3461px;line-height:1.5;font-family:'TeX Gyre DejaVu Math';-inkscape-font-specification:'TeX Gyre DejaVu Math';letter-spacing:0px;word-spacing:0px;fill:#bdb800;fill-opacity:1;stroke-width:5.14734;stroke-linecap:round;stroke-linejoin:round"
       d="M 153.75289 375.49749 L 153.75289 378.53142 L 159.17891 378.53142 L 159.17891 414.99792 L 153.75289 414.99792 L 153.75289 418.03185 L 170.6733 418.03185 C 177.96656 418.03185 183.68418 416.16479 187.76838 412.43064 C 191.91095 408.63815 193.95302 403.44527 193.95302 396.73547 C 193.95302 390.0257 191.91095 384.83285 187.76838 381.0987 C 183.68418 377.36458 177.96656 375.49749 170.6733 375.49749 L 153.75289 375.49749 z M 215.83282 375.49749 L 200.6632 414.99792 L 196.92855 414.99792 L 196.92855 418.03185 L 208.88958 418.03185 L 208.88958 414.99792 L 204.22216 414.99792 L 207.78112 405.66258 L 207.78163 405.66258 L 207.78783 405.61762 L 207.79145 405.61762 L 209.38567 401.4835 L 209.39032 401.48402 L 216.76661 382.38234 L 224.58474 402.62865 L 224.57234 402.62865 L 225.66788 405.66258 L 225.6932 405.66258 L 229.25267 414.99792 L 224.52635 414.99792 L 224.52635 418.03185 L 239.98845 418.03185 L 239.98845 414.99792 L 235.78716 414.99792 L 220.61754 375.49749 L 215.83282 375.49749 z M 238.82108 375.49749 L 238.82108 378.53142 L 243.08025 378.53142 L 258.19199 418.03185 L 263.09299 418.03185 L 278.26312 378.53142 L 282.4055 378.53142 L 282.4055 375.49749 L 269.91944 375.49749 L 269.91944 378.53142 L 274.70416 378.53142 L 262.15971 411.20539 L 249.61525 378.53142 L 254.34106 378.53142 L 254.34106 375.49749 L 238.82108 375.49749 z M 284.73973 375.49749 L 284.73973 378.53142 L 290.16575 378.53142 L 290.16575 414.99792 L 284.73973 414.99792 L 284.73973 418.03185 L 301.36817 418.03185 L 301.36817 414.99792 L 295.94214 414.99792 L 295.94214 378.53142 L 301.36817 378.53142 L 301.36817 375.49749 L 284.73973 375.49749 z M 323.13118 375.49749 L 307.96105 414.99792 L 304.22691 414.99792 L 304.22691 418.03185 L 316.18794 418.03185 L 316.18794 414.99792 L 311.52 414.99792 L 315.07948 405.66258 L 315.08826 405.66258 L 316.25977 402.56974 L 316.26907 402.56974 L 324.06446 382.38234 L 331.86191 402.57439 L 331.87535 402.57439 L 333.04014 405.73854 L 333.0205 405.73854 L 336.55052 414.99792 L 331.82471 414.99792 L 331.82471 418.03185 L 347.2863 418.03185 L 347.2863 414.99792 L 343.08552 414.99792 L 327.91538 375.49749 L 323.13118 375.49749 z M 164.95531 378.53142 L 170.26454 378.53142 C 175.80742 378.53142 180.00853 380.10708 182.98418 383.25774 C 185.95983 386.35008 187.41853 390.84254 187.41853 396.73547 C 187.41853 402.62842 185.95983 407.12091 182.98418 410.2716 C 180.00853 413.42228 175.80742 414.99792 170.26454 414.99792 L 164.95531 414.99792 L 164.95531 378.53142 z " />
    <circle
       style="fill:#bdb800;fill-opacity:1;stroke-width:2.46075;stroke-linecap:round;stroke-linejoin:round"
       id="path8"
       cx="323.96414"
       cy="402.89288"
       r="4.0962596" />
    <circle
       style="fill:#bdb800;fill-opacity:1;stroke-width:2.46075;stroke-linecap:round;stroke-linejoin:round"
       id="circle8"
       cx="216.78763"
       cy="402.89288"
       r="4.0962596" />
  </g>
</svg>
