<?xml version="1.0" encoding="UTF-8" standalone="no"?>
<!-- Created with Inkscape (http://www.inkscape.org/) -->

<svg
   width="500mm"
   height="500mm"
   viewBox="0 0 500 500"
   version="1.1"
   id="svg1"
   inkscape:version="1.3.2 (091e20e, 2023-11-25)"
   xml:space="preserve"
   sodipodi:docname="DuckDuckGo.svg"
   xmlns:inkscape="http://www.inkscape.org/namespaces/inkscape"
   xmlns:sodipodi="http://sodipodi.sourceforge.net/DTD/sodipodi-0.dtd"
   xmlns="http://www.w3.org/2000/svg"
   xmlns:svg="http://www.w3.org/2000/svg"><sodipodi:namedview
     id="namedview1"
     pagecolor="#ffffff"
     bordercolor="#000000"
     borderopacity="0.25"
     inkscape:showpageshadow="2"
     inkscape:pageopacity="0.0"
     inkscape:pagecheckerboard="0"
     inkscape:deskcolor="#d1d1d1"
     inkscape:document-units="mm"
     showgrid="false"
     inkscape:zoom="0.25982083"
     inkscape:cx="944.88189"
     inkscape:cy="944.88189"
     inkscape:window-width="1356"
     inkscape:window-height="697"
     inkscape:window-x="0"
     inkscape:window-y="0"
     inkscape:window-maximized="1"
     inkscape:current-layer="layer1" /><defs
     id="defs1"><inkscape:path-effect
       effect="bspline"
       id="path-effect7"
       is_visible="true"
       lpeversion="1.3"
       weight="33.333333"
       steps="2"
       helper_size="0"
       apply_no_weight="true"
       apply_with_weight="true"
       only_selected="false"
       uniform="false" /><inkscape:path-effect
       effect="bspline"
       id="path-effect6"
       is_visible="true"
       lpeversion="1.3"
       weight="33.333333"
       steps="2"
       helper_size="0"
       apply_no_weight="true"
       apply_with_weight="true"
       only_selected="false"
       uniform="false" /><clipPath
       clipPathUnits="userSpaceOnUse"
       id="clipPath5"><path
         id="path5"
         style="fill:#ff0000;fill-opacity:1;fill-rule:nonzero;stroke:none;stroke-width:0.264583"
         d="m 189.41428,186.0181 v 0.54726 c 0.008,-0.004 0.0155,-0.007 0.0233,-0.0114 -0.006,-0.0183 -0.0122,-0.0364 -0.0196,-0.0537 0.0201,-0.0348 0.0355,-0.073 0.0605,-0.10439 0.0611,-0.0767 0.29232,-0.16796 0.38293,-0.20826 0.13156,-0.0581 0.26392,-0.11443 0.39687,-0.16949 z m 2.29392,0 c 0.0735,0.24855 0.0846,0.24021 -0.032,0.28267 -0.14959,0.0373 -0.3014,0.0665 -0.45268,0.0961 0.26593,0.0126 0.27133,0.29629 -0.0253,0.31781 -0.039,0.003 -0.0775,0.008 -0.11627,0.0119 -0.0404,0.004 -0.0806,0.0121 -0.12041,0.0202 -0.13646,0.0273 -0.27468,0.0431 -0.4129,0.0584 -0.19437,0.0215 -0.38951,0.0346 -0.58445,0.0496 -0.12458,0.009 -0.24886,0.0186 -0.37311,0.031 -0.0196,0.002 -0.16615,0.0217 -0.17415,0.01 -0.001,-0.001 -0.002,-0.003 -0.003,-0.004 v 56.54228 h 81.75572 v -57.41561 z" /></clipPath></defs><g
     inkscape:label="Layer 1"
     inkscape:groupmode="layer"
     id="layer1"><circle
       style="opacity:1;fill:#fd5530;fill-opacity:1;stroke-width:10.6517;stroke-linecap:square;stroke-dashoffset:3666.14"
       id="path1"
       cx="253.88612"
       cy="244.42442"
       r="192.64023" /><circle
       style="opacity:1;fill:none;fill-opacity:1;stroke:#fd5530;stroke-width:15.4224;stroke-linecap:square;stroke-dasharray:none;stroke-dashoffset:3666.14;stroke-opacity:1"
       id="circle1"
       cx="253.88612"
       cy="244.42442"
       r="213.05673" /><g
       id="g23"
       transform="translate(1.727817,1.8402069)"><path
         id="path12"
         style="fill:#d5d7d8;fill-opacity:1;stroke:none;stroke-width:14.7904;stroke-linecap:round;stroke-linejoin:round;stroke-dasharray:none;stroke-dashoffset:3666.14;stroke-opacity:1"
         d="m 247.32702,109.50029 c -85.02141,-0.65049 -97.55817,68.75348 -91.20683,91.29366 l 52.43401,229.94203 a 194.44733,194.44733 0 0 0 43.96889,5.52421 194.44733,194.44733 0 0 0 67.18918,-11.98686 C 313.168,411.76486 246.78858,273.452 285.56035,232.51914 l 41.71063,-30.52578 c 0,0 -9.06613,-80.18614 -51.17155,-89.91286 -10.40605,-1.69611 -19.97709,-2.51291 -28.77241,-2.58021 z" /><path
         style="fill:#d5d7d8;fill-opacity:1;stroke:none;stroke-width:16.0235;stroke-linecap:round;stroke-linejoin:round;stroke-dasharray:none;stroke-dashoffset:3666.14;stroke-opacity:1"
         d="m 227.44469,111.84676 c 0,0 -32.81741,-13.328381 -55.10354,-8.87932 0.0616,0.39911 -6.06164,-5.113021 18.14878,-11.226454 0.34713,-0.188916 -14.40342,-9.296537 -14.40342,-9.296537 0,0 51.29931,-13.326349 91.5667,30.794541 -0.0512,0.0656 -39.26442,3.36965 -39.26442,3.36965 z"
         id="path22" /><path
         id="path21"
         style="fill:#ffffff;fill-opacity:1;stroke:none;stroke-width:14.4623;stroke-linecap:round;stroke-linejoin:round;stroke-dasharray:none;stroke-dashoffset:3666.14;stroke-opacity:1"
         d="m 252.97526,106.76661 c -81.29109,-0.65049 -93.27769,68.75348 -87.20502,91.29365 l 51.12505,234.49008 a 194.44733,194.44733 0 0 0 35.6278,3.70985 194.44733,194.44733 0 0 0 70.36625,-13.2364 C 319.368,416.49138 251.58368,271.68651 289.53116,229.78546 l 39.88077,-30.52579 c 0,0 -8.66817,-80.18562 -48.92621,-89.91234 -9.94948,-1.69611 -19.10104,-2.51343 -27.51046,-2.58072 z" /><g
         id="g11"
         transform="matrix(0.41265861,-0.03013992,0.02223687,0.30445447,166.44822,305.94547)"
         style="fill:#65bc46;fill-opacity:1;stroke:#65bc46;stroke-opacity:1"><path
           sodipodi:type="star"
           style="opacity:1;fill:#65bc46;fill-opacity:1;stroke:#65bc46;stroke-width:15;stroke-linecap:round;stroke-linejoin:round;stroke-dasharray:none;stroke-dashoffset:3666.14;stroke-opacity:1"
           id="path10"
           inkscape:flatsided="true"
           sodipodi:sides="3"
           sodipodi:cx="109.85931"
           sodipodi:cy="186.67142"
           sodipodi:r1="76.32621"
           sodipodi:r2="38.163105"
           sodipodi:arg1="2.0943951"
           sodipodi:arg2="3.1415927"
           inkscape:rounded="0"
           inkscape:randomized="0"
           d="m 71.696201,252.77185 0,-132.20087 114.489319,66.10044 z"
           inkscape:transform-center-x="-27.451338"
           transform="matrix(1.4386324,0,0,1.4386324,20.549313,-32.080216)"
           inkscape:transform-center-y="2.3515435e-06" /><path
           style="opacity:1;fill:#3d7229;fill-opacity:1;stroke:none;stroke-width:15.742;stroke-linecap:square;stroke-dasharray:none;stroke-dashoffset:3666.14;stroke-opacity:1"
           d="m 295.32582,192.46624 c 0,0 -44.66682,-28.23022 -94.02604,0.94097 -0.0731,-0.15855 -6.83045,33.31141 -0.44727,90.36201 -0.0508,0.65625 52.71003,28.24433 94.28204,-0.94354 0.21175,0.53782 12.4996,-39.56304 0.19127,-90.35944 z"
           id="path11"
           sodipodi:nodetypes="ccccc" /><path
           style="opacity:1;fill:#65bc46;fill-opacity:1;stroke:#65bc46;stroke-width:13.8032;stroke-linecap:square;stroke-dasharray:none;stroke-dashoffset:3666.14;stroke-opacity:1"
           d="m 290.91426,191.65739 c 0,0 -37.19544,-25.66893 -78.54243,1.5331 -0.0604,-0.14543 -5.84003,30.7114 -0.73888,83.18085 -0.0451,0.60443 43.91376,25.62485 78.75627,-1.53728 0.17469,0.49355 10.60068,-36.50621 0.52504,-83.17667 z"
           id="path7"
           sodipodi:nodetypes="ccccc" /><path
           sodipodi:type="star"
           style="opacity:1;fill:#65bc46;fill-opacity:1;stroke:#65bc46;stroke-width:15;stroke-linecap:round;stroke-linejoin:round;stroke-dasharray:none;stroke-dashoffset:3666.14;stroke-opacity:1"
           id="path20"
           inkscape:flatsided="true"
           sodipodi:sides="3"
           sodipodi:cx="109.85931"
           sodipodi:cy="186.67142"
           sodipodi:r1="76.32621"
           sodipodi:r2="38.163105"
           sodipodi:arg1="2.0943951"
           sodipodi:arg2="3.1415927"
           inkscape:rounded="0"
           inkscape:randomized="0"
           d="m 71.696201,252.77185 0,-132.20087 114.489319,66.10044 z"
           inkscape:transform-center-x="26.861562"
           transform="matrix(-1.4375489,0.07566483,0.04118666,1.4375489,501.96761,-41.736259)"
           inkscape:transform-center-y="-1.0052047" /></g><path
         style="fill:#fdd20a;fill-opacity:1;stroke:none;stroke-width:14.4623;stroke-linecap:round;stroke-linejoin:round;stroke-dasharray:none;stroke-dashoffset:3666.14;stroke-opacity:1"
         d="m 260.49252,227.96834 c 0,0 10.54564,-23.93717 39.25834,-25.33805 28.71268,-1.40089 80.43015,-18.36383 83.70256,-19.21777 5.3927,-1.40724 24.43292,0.1013 26.53984,6.12283 2.10692,6.02153 -8.68562,15.87289 -82.36857,37.39215 -9.81847,0.94945 -20.30719,-1.49296 -26.07991,-1.3775 -5.77271,0.11545 -13.93348,11.6538 -4.44932,19.75369 9.48415,8.0999 33.20346,6.94912 33.20346,6.94912 0,0 24.3586,0.0619 51.0937,-8.73471 -0.0534,0.19358 21.29621,-3.05462 5.99691,12.81769 -15.29929,15.87233 -62.91588,20.48311 -114.93975,-4.68924 0.25982,0.20255 -10.84008,-6.62852 -11.95726,-23.67821 z"
         id="path14"
         sodipodi:nodetypes="cssscssccscc" /><path
         style="fill:#2d4f8e;fill-opacity:1;stroke:none;stroke-width:14.4623;stroke-linecap:round;stroke-linejoin:round;stroke-dasharray:none;stroke-dashoffset:3666.14;stroke-opacity:1"
         d="m 283.00126,143.17144 c 0,0 9.54126,-10.69725 26.27766,-1.49475 -0.0468,-0.0764 -14.34423,-19.39547 -26.27766,1.49475 z"
         id="path16" /><path
         style="fill:#2d4f8e;fill-opacity:1;stroke:none;stroke-width:14.4623;stroke-linecap:round;stroke-linejoin:round;stroke-dasharray:none;stroke-dashoffset:3666.14;stroke-opacity:1"
         d="m 188.12721,162.46753 c 0,0 6.74317,-20.51509 28.08193,-14.0104 0.054,-0.0429 -2.21393,-3.56361 -8.88277,-4.56121 0.0738,0.0329 -24.25494,0.71077 -19.19916,18.57161 z"
         id="path17"
         sodipodi:nodetypes="cccc" /><g
         id="g17"
         transform="matrix(0.96415261,0,0,0.96415261,8.5733374,18.661447)"><circle
           style="opacity:1;fill:#2d4f8e;fill-opacity:1;stroke:none;stroke-width:15;stroke-linecap:round;stroke-linejoin:round;stroke-dasharray:none;stroke-dashoffset:3666.14;stroke-opacity:1"
           id="path15"
           cx="302.54947"
           cy="155.54311"
           r="12.626208" /><circle
           style="opacity:1;fill:#ffffff;fill-opacity:1;stroke:none;stroke-width:3.9476;stroke-linecap:round;stroke-linejoin:round;stroke-dasharray:none;stroke-dashoffset:3666.14;stroke-opacity:1"
           id="circle17"
           cx="308.06458"
           cy="151.08237"
           r="3.3228841" /></g><g
         id="g19"
         transform="matrix(0.96415261,0,0,0.96415261,-81.929248,29.997134)"><circle
           style="opacity:1;fill:#2d4f8e;fill-opacity:1;stroke:none;stroke-width:15;stroke-linecap:round;stroke-linejoin:round;stroke-dasharray:none;stroke-dashoffset:3666.14;stroke-opacity:1"
           id="circle18"
           cx="302.54947"
           cy="155.54311"
           r="12.626208" /><circle
           style="opacity:1;fill:#ffffff;fill-opacity:1;stroke:none;stroke-width:3.9476;stroke-linecap:round;stroke-linejoin:round;stroke-dasharray:none;stroke-dashoffset:3666.14;stroke-opacity:1"
           id="circle19"
           cx="308.06458"
           cy="151.08237"
           r="3.3228841" /></g><path
         style="fill:#ffffff;fill-opacity:1;stroke:none;stroke-width:14.4623;stroke-linecap:round;stroke-linejoin:round;stroke-dasharray:none;stroke-dashoffset:3666.14;stroke-opacity:1"
         d="m 230.64598,108.25135 c 0,0 -30.20457,-11.796982 -50.71634,-7.85911 0.0567,0.35325 -5.57903,-4.525545 16.70382,-9.936558 0.31949,-0.16721 -13.25666,-8.228385 -13.25666,-8.228385 0,0 47.215,-11.79518 84.27641,27.256313 -0.0471,0.0581 -36.13829,2.98249 -36.13829,2.98249 z"
         id="path19" /></g></g></svg>
