<?xml version="1.0" encoding="UTF-8" standalone="no"?>
<!-- Created with Inkscape (http://www.inkscape.org/) -->

<svg
   width="500mm"
   height="500mm"
   viewBox="0 0 500 500"
   version="1.1"
   id="svg1"
   inkscape:version="1.3.2 (091e20e, 2023-11-25)"
   xml:space="preserve"
   sodipodi:docname="Falkon.svg"
   xmlns:inkscape="http://www.inkscape.org/namespaces/inkscape"
   xmlns:sodipodi="http://sodipodi.sourceforge.net/DTD/sodipodi-0.dtd"
   xmlns:xlink="http://www.w3.org/1999/xlink"
   xmlns="http://www.w3.org/2000/svg"
   xmlns:svg="http://www.w3.org/2000/svg"><sodipodi:namedview
     id="namedview1"
     pagecolor="#ffffff"
     bordercolor="#000000"
     borderopacity="0.25"
     inkscape:showpageshadow="2"
     inkscape:pageopacity="0.0"
     inkscape:pagecheckerboard="0"
     inkscape:deskcolor="#d1d1d1"
     inkscape:document-units="mm"
     showgrid="false"
     inkscape:zoom="0.25982083"
     inkscape:cx="1204.6763"
     inkscape:cy="944.88189"
     inkscape:window-width="1356"
     inkscape:window-height="697"
     inkscape:window-x="0"
     inkscape:window-y="0"
     inkscape:window-maximized="1"
     inkscape:current-layer="layer1" /><defs
     id="defs1"><linearGradient
       id="linearGradient19"
       inkscape:collect="always"><stop
         style="stop-color:#a2cccf;stop-opacity:1;"
         offset="0"
         id="stop19" /><stop
         style="stop-color:#98bbff;stop-opacity:1;"
         offset="0"
         id="stop21" /><stop
         style="stop-color:#bf81ff;stop-opacity:1;"
         offset="1"
         id="stop20" /></linearGradient><linearGradient
       id="linearGradient15"
       inkscape:collect="always"><stop
         style="stop-color:#ffdc68;stop-opacity:1;"
         offset="0"
         id="stop16" /><stop
         style="stop-color:#ffdc68;stop-opacity:1;"
         offset="0.55881399"
         id="stop18" /><stop
         style="stop-color:#ff840a;stop-opacity:1;"
         offset="1"
         id="stop17" /></linearGradient><linearGradient
       id="linearGradient13"
       inkscape:collect="always"><stop
         style="stop-color:#ffdc68;stop-opacity:1;"
         offset="0"
         id="stop13" /><stop
         style="stop-color:#ffdb66;stop-opacity:1;"
         offset="0.55717379"
         id="stop15" /><stop
         style="stop-color:#f28518;stop-opacity:1;"
         offset="1"
         id="stop14" /></linearGradient><linearGradient
       id="linearGradient8"
       inkscape:collect="always"><stop
         style="stop-color:#ffb942;stop-opacity:1;"
         offset="0"
         id="stop8" /><stop
         style="stop-color:#ff6404;stop-opacity:1;"
         offset="1"
         id="stop9" /></linearGradient><linearGradient
       inkscape:collect="always"
       xlink:href="#linearGradient8"
       id="linearGradient9"
       x1="395.30453"
       y1="113.02847"
       x2="322.26672"
       y2="111.78439"
       gradientUnits="userSpaceOnUse"
       gradientTransform="translate(15.570727,-6.9602661)" /><linearGradient
       inkscape:collect="always"
       xlink:href="#linearGradient13"
       id="linearGradient14"
       x1="556.32379"
       y1="214.56267"
       x2="297.90558"
       y2="400.10938"
       gradientUnits="userSpaceOnUse"
       gradientTransform="translate(0,1.4363928)" /><linearGradient
       inkscape:collect="always"
       xlink:href="#linearGradient15"
       id="linearGradient17"
       x1="460.46552"
       y1="184.97951"
       x2="298.75931"
       y2="260.65295"
       gradientUnits="userSpaceOnUse" /><linearGradient
       inkscape:collect="always"
       xlink:href="#linearGradient19"
       id="linearGradient20"
       x1="301.58972"
       y1="346.68311"
       x2="569.99042"
       y2="75.418861"
       gradientUnits="userSpaceOnUse" /></defs><g
     inkscape:label="Layer 1"
     inkscape:groupmode="layer"
     id="layer1"><g
       id="g21"
       transform="translate(-189.57408,32.715217)"><circle
         style="opacity:1;fill:url(#linearGradient20);fill-opacity:1;stroke:none;stroke-width:3;stroke-linecap:round;stroke-linejoin:round;stroke-dasharray:none;stroke-opacity:1"
         id="path1"
         cx="440.71255"
         cy="214.68761"
         r="194.73048" /><path
         style="fill:url(#linearGradient9);fill-opacity:1;stroke:none;stroke-width:6.00001;stroke-linecap:square;stroke-linejoin:miter;stroke-dasharray:none;stroke-opacity:1"
         d="m 338.29169,104.55944 c 0,0 32.63937,-5.041226 74.84781,1.68145 0.33868,-0.0318 -3.57419,11.78676 -13.36705,12.61228 0.007,-0.15322 -15.5516,-11.02132 -61.48076,-14.29373 z"
         id="path6" /><path
         style="opacity:0.35789;fill:#7e27ff;fill-opacity:1;stroke:none;stroke-width:3;stroke-linecap:square;stroke-linejoin:miter;stroke-dasharray:none;stroke-opacity:1"
         d="m 566.3788,363.57202 c 0,0 68.51097,-51.22492 69.15623,-156.90695 0.17788,-0.002 -54.83796,-40.91217 -54.83796,-40.91217 l -244.12358,31.10147 -37.29893,62.53891 10.45093,10.14631 15.61075,101.62293 c 0,0 25.09763,23.01664 56.76604,18.57039 31.6684,-4.44624 184.27652,-26.16089 184.27652,-26.16089 z"
         id="path19"
         sodipodi:nodetypes="cccccccsc" /><path
         style="fill:#ffffff;fill-opacity:1;stroke:none;stroke-width:6.01157;stroke-linecap:square;stroke-linejoin:miter;stroke-dasharray:none;stroke-opacity:1"
         d="m 299.09955,259.55656 c 0,0 120.82403,-137.12183 314.36749,-43.97813 -0.42566,0.12778 -2.75815,-50.07934 -66.85365,-64.24008 -0.011,-0.5493 -76.25258,-104.90883 -209.0038,-46.40073 -0.5591,0.2949 34.66893,-4.6958 73.34733,0.87572 -0.38887,0.18161 -3.05875,12.38973 -14.34032,12.71929 -0.21109,0.45047 -87.03407,-26.47436 -97.51705,141.02393 z"
         id="path2" /><path
         style="fill:#ffffff;fill-opacity:1;stroke:none;stroke-width:6.00001;stroke-linecap:square;stroke-linejoin:miter;stroke-dasharray:none;stroke-opacity:1"
         d="m 334.96705,377.40625 c 0,0 56.55565,-151.17966 231.81884,-156.4866 -0.5176,-1.00572 -127.97484,22.60723 0.23754,142.94121 -0.25459,-0.54044 -102.21735,93.77253 -232.05638,13.54539 z"
         id="path4"
         sodipodi:nodetypes="cccc" /><path
         style="fill:#1a1a1a;fill-opacity:1;stroke:none;stroke-width:6.00001;stroke-linecap:square;stroke-linejoin:miter;stroke-dasharray:none;stroke-opacity:1"
         d="m 516.17291,163.50253 c 0,0 -2.01106,-32.01896 -35.93164,-22.52933 0.14909,-0.238 3.96968,26.53144 35.93164,22.52933 z"
         id="path5" /><path
         id="circle18"
         style="opacity:1;fill:#999999;fill-opacity:1;stroke:none;stroke-width:3.01749;stroke-linecap:round;stroke-linejoin:round;stroke-dasharray:none;stroke-opacity:1"
         d="M 440.71263,18.820948 A 195.86662,195.86662 0 0 0 244.84591,214.68767 195.86662,195.86662 0 0 0 440.71263,410.55439 195.86662,195.86662 0 0 0 636.57936,214.68767 195.86662,195.86662 0 0 0 440.71263,18.820948 Z m 0,2.367221 a 193.49923,193.49923 0 0 1 193.499,193.499501 193.49923,193.49923 0 0 1 -193.499,193.49899 193.49923,193.49923 0 0 1 -193.4995,-193.49899 193.49923,193.49923 0 0 1 193.4995,-193.499501 z" /><path
         style="fill:#ffffff;fill-opacity:1;stroke:none;stroke-width:6.00001;stroke-linecap:square;stroke-linejoin:miter;stroke-dasharray:none;stroke-opacity:1"
         d="m 313.51144,403.03763 c 0,0 -41.87001,-48.13171 2.82947,-154.1928 -0.11878,0.61874 117.96442,-117.45854 293.50626,-31.26683 -0.0325,0.16423 -214.22831,-33.21242 -296.33573,185.45963 z"
         id="path3" /><path
         style="opacity:1;fill:url(#linearGradient17);fill-opacity:1;stroke:none;stroke-width:3;stroke-linecap:square;stroke-linejoin:miter;stroke-dasharray:none;stroke-opacity:1"
         d="m 299.13775,259.53347 c 0.17872,0.0151 55.70188,-64.9462 165.80973,-75.87732 -0.0223,-0.0931 -164.63933,-11.72257 -165.80973,75.87732 z"
         id="path8"
         sodipodi:nodetypes="ccc" /><path
         style="fill:url(#linearGradient14);fill-opacity:1;stroke:none;stroke-width:6.00001;stroke-linecap:square;stroke-linejoin:miter;stroke-dasharray:none;stroke-opacity:1"
         d="m 313.33011,402.89194 c 0,0 -12.05016,-14.87227 -16.19945,-44.1886 0,0 90.98724,-151.07952 263.5601,-142.48127 -0.19197,1.99022 -171.71285,-3.8457 -247.36065,186.66987 z"
         id="path7"
         sodipodi:nodetypes="cccc" /></g></g></svg>
