<?xml version="1.0" encoding="UTF-8" standalone="no"?>
<!-- Created with Inkscape (http://www.inkscape.org/) -->

<svg
   width="500mm"
   height="500mm"
   viewBox="0 0 500 500"
   version="1.1"
   id="svg1"
   inkscape:version="1.3.2 (091e20e, 2023-11-25)"
   sodipodi:docname="hp.svg"
   xmlns:inkscape="http://www.inkscape.org/namespaces/inkscape"
   xmlns:sodipodi="http://sodipodi.sourceforge.net/DTD/sodipodi-0.dtd"
   xmlns="http://www.w3.org/2000/svg"
   xmlns:svg="http://www.w3.org/2000/svg">
  <sodipodi:namedview
     id="namedview1"
     pagecolor="#ffffff"
     bordercolor="#000000"
     borderopacity="0.25"
     inkscape:showpageshadow="2"
     inkscape:pageopacity="0.0"
     inkscape:pagecheckerboard="0"
     inkscape:deskcolor="#d1d1d1"
     inkscape:document-units="mm"
     showgrid="false"
     inkscape:zoom="0.25982083"
     inkscape:cx="944.88189"
     inkscape:cy="944.88189"
     inkscape:window-width="1356"
     inkscape:window-height="697"
     inkscape:window-x="0"
     inkscape:window-y="0"
     inkscape:window-maximized="1"
     inkscape:current-layer="layer1" />
  <defs
     id="defs1" />
  <g
     inkscape:label="Layer 1"
     inkscape:groupmode="layer"
     id="layer1">
    <path
       id="path3"
       style="opacity:1;fill:#05a5ff;fill-opacity:1;stroke:none;stroke-width:15;stroke-linecap:round;stroke-linejoin:round;stroke-dasharray:none;stroke-dashoffset:3666.14;stroke-opacity:1"
       d="m 257.43808,47.079832 a 203.42044,203.42044 0 0 0 -38.19043,4.080888 l -39.58777,122.13311 h 67.7385 c 6.83627,0 10.76589,5.00224 9.18652,11.38277 h 0.0145 l -0.0904,0.27905 c -0.0571,0.21072 -0.10238,0.41855 -0.17157,0.632 -0.0692,0.21361 -0.15868,0.42166 -0.23823,0.63252 l -45.34658,139.89948 h -41.36957 l 41.56645,-128.23766 h -39.2591 L 130.17711,325.95531 H 88.808061 L 173.28559,65.331948 A 203.42044,203.42044 0 0 0 54.017936,250.50049 203.42044,203.42044 0 0 0 211.23625,448.09773 l 88.8938,-276.88904 h 41.36956 l -0.002,0.007 h 58.27241 c 0.81422,0 1.58141,0.0801 2.30942,0.21601 0.16517,-0.005 0.33254,-0.0305 0.49713,-0.0305 11.4593,0 17.00062,11.47505 12.42456,25.72866 l -37.1197,115.62189 c -4.57605,14.2536 -17.4857,25.72866 -28.945,25.72866 -1.12119,0 -2.16743,-0.14037 -3.17138,-0.35192 -0.6859,0.0967 -1.37305,0.16123 -2.05724,0.16123 h -55.84879 l -36.97242,115.16248 a 203.42044,203.42044 0 0 0 6.55154,0.46871 A 203.42044,203.42044 0 0 0 460.85874,250.50049 203.42044,203.42044 0 0 0 257.43808,47.079832 Z M 333.60346,195.80409 295.75305,313.7018 h 40.4921 c 0.0928,-0.31783 0.16368,-0.62907 0.26666,-0.94981 L 373.63202,197.1301 c 0.14376,-0.44779 0.31914,-0.88399 0.47904,-1.32601 z" />
  </g>
</svg>
