<?xml version="1.0" encoding="UTF-8" standalone="no"?>
<!-- Created with Inkscape (http://www.inkscape.org/) -->

<svg
   width="500mm"
   height="500mm"
   viewBox="0 0 500 500"
   version="1.1"
   id="svg1"
   inkscape:version="1.3.2 (091e20e, 2023-11-25)"
   xml:space="preserve"
   sodipodi:docname="Kali-Linux.svg"
   xmlns:inkscape="http://www.inkscape.org/namespaces/inkscape"
   xmlns:sodipodi="http://sodipodi.sourceforge.net/DTD/sodipodi-0.dtd"
   xmlns="http://www.w3.org/2000/svg"
   xmlns:svg="http://www.w3.org/2000/svg"><sodipodi:namedview
     id="namedview1"
     pagecolor="#ffffff"
     bordercolor="#000000"
     borderopacity="0.25"
     inkscape:showpageshadow="2"
     inkscape:pageopacity="0.0"
     inkscape:pagecheckerboard="0"
     inkscape:deskcolor="#d1d1d1"
     inkscape:document-units="mm"
     showgrid="false"
     inkscape:zoom="0.25982083"
     inkscape:cx="946.80629"
     inkscape:cy="944.88189"
     inkscape:window-width="1356"
     inkscape:window-height="697"
     inkscape:window-x="0"
     inkscape:window-y="0"
     inkscape:window-maximized="1"
     inkscape:current-layer="layer1" /><defs
     id="defs1"><filter
       inkscape:collect="always"
       style="color-interpolation-filters:sRGB"
       id="filter7"
       x="-0.0090818314"
       y="-0.012192811"
       width="1.0181637"
       height="1.0243856"><feGaussianBlur
         inkscape:collect="always"
         stdDeviation="1.50404"
         id="feGaussianBlur7" /></filter></defs><g
     inkscape:label="Layer 1"
     inkscape:groupmode="layer"
     id="layer1"><g
       id="g4"
       style="fill:#1a1a1a;fill-opacity:1"
       transform="translate(6.887902)"><g
         id="g8"
         transform="translate(20.299566)"><path
           id="path1"
           style="opacity:1;fill:#1a1a1a;fill-opacity:1;stroke-width:10;stroke-linecap:round;stroke-linejoin:round"
           d="m 91.122603,101.46616 c -14.943809,1.4e-4 -24.447314,0.29788 -24.459489,0.27388 103.255336,0.81073 185.256396,29.28142 185.256396,29.28142 0,0 16.09206,51.03797 17.95497,49.91168 -24.57713,14.38228 -29.75079,48.06012 -29.80645,47.75109 -3.53601,59.19101 55.53718,60.18961 55.53718,60.18961 0,0 36.90385,1.33709 36.94658,1.33377 78.44087,9.47099 95.17249,107.30973 95.17249,107.30973 2.19671,-57.91728 -56.90112,-102.35334 -57.14742,-102.35034 53.9038,7.21861 75.28322,54.93719 75.73182,55.50255 -21.89279,-67.83168 -111.30577,-71.73485 -110.95861,-71.88243 -41.10883,-1.01196 -57.2363,-5.62757 -57.2363,-5.62757 0,0 -25.78847,-11.11962 -25.63926,-40.29883 0.14921,-29.1792 22.99446,-40.86675 22.99446,-40.86675 0,0 13.41374,-10.06508 37.77599,-4.9413 24.36226,5.12378 59.19916,24.33732 59.28786,23.75565 -1.25885,5.53429 -0.69599,6.22672 1.28829,9.75548 1.09628,1.94957 11.65518,5.48919 12.30416,5.81825 11.00467,4.59491 19.73419,15.77578 19.73419,15.77578 0,0 9.40356,-9.04526 9.63714,-9.13846 -6.66096,-0.7416 -18.18648,-9.5343 -18.18648,-9.5343 l 0.70538,-3.71812 -10.2986,-15.9675 -8.63358,-0.14883 c 0,0 -0.59524,-0.2886 -0.61081,-0.29611 l -12.05715,-13.07517 0.27802,7.36493 c -0.0555,-0.0267 -0.0873,-0.0428 -0.14314,-0.0698 l -14.38827,-13.05656 1.20871,6.66729 c -0.82024,-0.39659 -0.84315,-0.40985 -1.64951,-0.79995 l -11.67578,-10.11308 -0.75499,4.08657 c -2.06073,-1.00969 -7.68589,-3.70141 -7.65793,-3.71243 -18.28927,-9.41943 -39.74851,-7.16479 -40.09626,-7.32462 -40.78248,-6.68218 -28.24844,-46.84414 -28.40343,-47.09945 -33.38399,-22.07849 -127.17875,-24.7565 -172.010177,-24.75608 z"
           sodipodi:nodetypes="scccccccccccscscscccccccccccccccccccs" /><path
           style="opacity:1;fill:#1a1a1a;fill-opacity:1;stroke-width:10;stroke-linecap:round;stroke-linejoin:round"
           d="m 254.07363,143.57634 -3.01425,-9.30287 c 1.06309,-1.63676 -146.871,0.99453 -202.214146,19.96548 0.08931,0.13932 101.141566,-17.12049 205.228396,-10.66261 z"
           id="path3"
           sodipodi:nodetypes="cccc" /><path
           style="opacity:1;fill:#1a1a1a;fill-opacity:1;stroke-width:10;stroke-linecap:round;stroke-linejoin:round"
           d="m 258.56903,156.80572 -2.63412,-8.88411 c -0.51055,-1.91808 -99.56799,9.75559 -176.537939,62.32023 0.0617,0.0507 110.239029,-57.33697 179.172059,-53.43612 z"
           id="path4"
           sodipodi:nodetypes="cccc" /></g></g><g
       id="g7"
       style="opacity:0.314699;fill:#000000;fill-opacity:1;filter:url(#filter7)"
       transform="matrix(1.1335065,0,0,1.1335065,-35.276344,-23.838652)"><path
         id="path5"
         style="opacity:1;fill:#000000;fill-opacity:1;stroke-width:10;stroke-linecap:round;stroke-linejoin:round"
         d="m 91.122603,101.46616 c -14.943809,1.4e-4 -24.447314,0.29788 -24.459489,0.27388 103.255336,0.81073 185.256396,29.28142 185.256396,29.28142 0,0 16.09206,51.03797 17.95497,49.91168 -24.57713,14.38228 -29.75079,48.06012 -29.80645,47.75109 -3.53601,59.19101 55.53718,60.18961 55.53718,60.18961 0,0 36.90385,1.33709 36.94658,1.33377 78.44087,9.47099 95.17249,107.30973 95.17249,107.30973 2.19671,-57.91728 -56.90112,-102.35334 -57.14742,-102.35034 53.9038,7.21861 75.28322,54.93719 75.73182,55.50255 -21.89279,-67.83168 -111.30577,-71.73485 -110.95861,-71.88243 -41.10883,-1.01196 -57.2363,-5.62757 -57.2363,-5.62757 0,0 -25.78847,-11.11962 -25.63926,-40.29883 0.14921,-29.1792 22.99446,-40.86675 22.99446,-40.86675 0,0 13.41374,-10.06508 37.77599,-4.9413 24.36226,5.12378 59.19916,24.33732 59.28786,23.75565 -1.25885,5.53429 -0.69599,6.22672 1.28829,9.75548 1.09628,1.94957 11.65518,5.48919 12.30416,5.81825 11.00467,4.59491 19.73419,15.77578 19.73419,15.77578 0,0 9.40356,-9.04526 9.63714,-9.13846 -6.66096,-0.7416 -18.18648,-9.5343 -18.18648,-9.5343 l 0.70538,-3.71812 -10.2986,-15.9675 -8.63358,-0.14883 c 0,0 -0.59524,-0.2886 -0.61081,-0.29611 l -12.05715,-13.07517 0.27802,7.36493 c -0.0555,-0.0267 -0.0873,-0.0428 -0.14314,-0.0698 l -14.38827,-13.05656 1.20871,6.66729 c -0.82024,-0.39659 -0.84315,-0.40985 -1.64951,-0.79995 l -11.67578,-10.11308 -0.75499,4.08657 c -2.06073,-1.00969 -7.68589,-3.70141 -7.65793,-3.71243 -18.28927,-9.41943 -39.74851,-7.16479 -40.09626,-7.32462 -40.78248,-6.68218 -28.24844,-46.84414 -28.40343,-47.09945 -33.38399,-22.07849 -127.17875,-24.7565 -172.010177,-24.75608 z"
         sodipodi:nodetypes="scccccccccccscscscccccccccccccccccccs" /><path
         style="opacity:1;fill:#000000;fill-opacity:1;stroke-width:10;stroke-linecap:round;stroke-linejoin:round"
         d="m 254.07363,143.57634 -3.01425,-9.30287 c 1.06309,-1.63676 -146.871,0.99453 -202.214146,19.96548 0.08931,0.13932 101.141566,-17.12049 205.228396,-10.66261 z"
         id="path6"
         sodipodi:nodetypes="cccc" /><path
         style="opacity:1;fill:#000000;fill-opacity:1;stroke-width:10;stroke-linecap:round;stroke-linejoin:round"
         d="m 258.56903,156.80572 -2.63412,-8.88411 c -0.51055,-1.91808 -99.56799,9.75559 -176.537939,62.32023 0.0617,0.0507 110.239029,-57.33697 179.172059,-53.43612 z"
         id="path7"
         sodipodi:nodetypes="cccc" /></g></g></svg>
