<?xml version="1.0" encoding="UTF-8" standalone="no"?>
<!-- Created with Inkscape (http://www.inkscape.org/) -->

<svg
   width="500mm"
   height="500mm"
   viewBox="0 0 500 500"
   version="1.1"
   id="svg1"
   inkscape:version="1.3.2 (091e20e, 2023-11-25)"
   sodipodi:docname="M.svg"
   xmlns:inkscape="http://www.inkscape.org/namespaces/inkscape"
   xmlns:sodipodi="http://sodipodi.sourceforge.net/DTD/sodipodi-0.dtd"
   xmlns:xlink="http://www.w3.org/1999/xlink"
   xmlns="http://www.w3.org/2000/svg"
   xmlns:svg="http://www.w3.org/2000/svg">
  <sodipodi:namedview
     id="namedview1"
     pagecolor="#ffffff"
     bordercolor="#000000"
     borderopacity="0.25"
     inkscape:showpageshadow="2"
     inkscape:pageopacity="0.0"
     inkscape:pagecheckerboard="0"
     inkscape:deskcolor="#d1d1d1"
     inkscape:document-units="mm"
     showgrid="false"
     inkscape:zoom="0.25982083"
     inkscape:cx="946.8063"
     inkscape:cy="944.8819"
     inkscape:window-width="1356"
     inkscape:window-height="697"
     inkscape:window-x="0"
     inkscape:window-y="0"
     inkscape:window-maximized="1"
     inkscape:current-layer="layer1" />
  <defs
     id="defs1">
    <linearGradient
       id="linearGradient1"
       inkscape:collect="always">
      <stop
         style="stop-color:#feff16;stop-opacity:1;"
         offset="0"
         id="stop1" />
      <stop
         style="stop-color:#767600;stop-opacity:1;"
         offset="1"
         id="stop2" />
    </linearGradient>
    <linearGradient
       id="linearGradient10"
       inkscape:collect="always">
      <stop
         style="stop-color:#1a1a1a;stop-opacity:1;"
         offset="0"
         id="stop10" />
      <stop
         style="stop-color:#0d0d0d;stop-opacity:1;"
         offset="1"
         id="stop11" />
    </linearGradient>
    <linearGradient
       inkscape:collect="always"
       xlink:href="#linearGradient10"
       id="linearGradient11"
       x1="255.57701"
       y1="496.24503"
       x2="255.57701"
       y2="0.72845954"
       gradientUnits="userSpaceOnUse" />
    <filter
       inkscape:collect="always"
       style="color-interpolation-filters:sRGB"
       id="filter1"
       x="-1.0566602"
       y="-1.0566602"
       width="3.1133204"
       height="3.1133204">
      <feGaussianBlur
         inkscape:collect="always"
         stdDeviation="89.612991"
         id="feGaussianBlur1" />
    </filter>
    <linearGradient
       inkscape:collect="always"
       xlink:href="#linearGradient1"
       id="linearGradient2"
       x1="250.81339"
       y1="434.61383"
       x2="247.13248"
       y2="53.405251"
       gradientUnits="userSpaceOnUse" />
  </defs>
  <g
     inkscape:label="Layer 1"
     inkscape:groupmode="layer"
     id="layer1">
    <rect
       style="fill:url(#linearGradient11);stroke:none;stroke-width:7.99999;stroke-linecap:round;stroke-linejoin:round;stroke-opacity:1;fill-opacity:1"
       id="rect9"
       width="506.06122"
       height="504.80988"
       x="-0.35741615"
       y="-4.0399122" />
    <path
       id="rect5"
       style="fill:url(#linearGradient2);stroke:none;stroke-width:10;stroke-linecap:round;stroke-linejoin:round;stroke-dasharray:none;stroke-opacity:1;fill-opacity:1"
       d="M 252.67293,57.581837 A 190.78305,190.78305 0 0 0 61.890263,248.36502 190.78305,190.78305 0 0 0 252.67293,439.14821 190.78305,190.78305 0 0 0 443.45612,248.36502 190.78305,190.78305 0 0 0 252.67293,57.581837 Z m 0,27.103255 A 163.68008,163.68008 0 0 1 416.35338,248.36502 163.68008,163.68008 0 0 1 352.87043,377.37833 V 171.92369 h -39.66528 v 0.0295 l -59.62788,59.62732 -59.62737,-59.62736 v -0.0295 H 154.28462 V 378.92346 A 163.68008,163.68008 0 0 1 88.993001,248.36502 163.68008,163.68008 0 0 1 252.67293,84.685092 Z m 60.53222,143.362818 v 171.86341 a 163.68008,163.68008 0 0 1 -60.53222,12.13363 163.68008,163.68008 0 0 1 -58.72303,-11.38432 v -172.6122 l 59.61238,59.61238 0.015,-0.0155 0.0155,0.0155 z" />
    <circle
       style="fill:#feff16;fill-opacity:1;stroke-width:10;stroke-linecap:round;stroke-linejoin:round;filter:url(#filter1);opacity:0.60423073"
       id="path1"
       cx="252.67319"
       cy="451.26184"
       r="101.76932" />
  </g>
</svg>
