<?xml version="1.0" encoding="UTF-8" standalone="no"?>
<!-- Created with Inkscape (http://www.inkscape.org/) -->

<svg
   width="500mm"
   height="500mm"
   viewBox="0 0 500 500"
   version="1.1"
   id="svg1"
   inkscape:version="1.3.2 (091e20e, 2023-11-25)"
   sodipodi:docname="M.svg"
   xmlns:inkscape="http://www.inkscape.org/namespaces/inkscape"
   xmlns:sodipodi="http://sodipodi.sourceforge.net/DTD/sodipodi-0.dtd"
   xmlns:xlink="http://www.w3.org/1999/xlink"
   xmlns="http://www.w3.org/2000/svg"
   xmlns:svg="http://www.w3.org/2000/svg">
  <sodipodi:namedview
     id="namedview1"
     pagecolor="#ffffff"
     bordercolor="#000000"
     borderopacity="0.25"
     inkscape:showpageshadow="2"
     inkscape:pageopacity="0.0"
     inkscape:pagecheckerboard="0"
     inkscape:deskcolor="#d1d1d1"
     inkscape:document-units="mm"
     showgrid="false"
     inkscape:zoom="0.25982083"
     inkscape:cx="946.80629"
     inkscape:cy="944.88189"
     inkscape:window-width="1356"
     inkscape:window-height="697"
     inkscape:window-x="0"
     inkscape:window-y="0"
     inkscape:window-maximized="1"
     inkscape:current-layer="layer1" />
  <defs
     id="defs1">
    <linearGradient
       id="linearGradient10"
       inkscape:collect="always">
      <stop
         style="stop-color:#1a1a1a;stop-opacity:1;"
         offset="0"
         id="stop10" />
      <stop
         style="stop-color:#0d0d0d;stop-opacity:1;"
         offset="1"
         id="stop11" />
    </linearGradient>
    <linearGradient
       inkscape:collect="always"
       xlink:href="#linearGradient10"
       id="linearGradient11"
       x1="255.57701"
       y1="496.24503"
       x2="255.57701"
       y2="0.72845954"
       gradientUnits="userSpaceOnUse" />
  </defs>
  <g
     inkscape:label="Layer 1"
     inkscape:groupmode="layer"
     id="layer1">
    <rect
       style="fill:url(#linearGradient11);stroke:none;stroke-width:7.99999;stroke-linecap:round;stroke-linejoin:round;stroke-opacity:1;fill-opacity:1"
       id="rect9"
       width="506.06122"
       height="504.80988"
       x="-0.35741615"
       y="-4.0399122" />
    <g
       id="g6"
       transform="translate(-7.801866,34.840334)">
      <g
         id="g4"
         transform="matrix(0.58486184,0,0,0.58486184,102.49269,85.228602)">
        <rect
           style="fill:#938725;fill-opacity:1;stroke-width:3.27196;stroke-linecap:round;stroke-linejoin:round"
           id="rect2"
           width="50.989948"
           height="354.72495"
           x="70.383766"
           y="121.60245"
           ry="7.7525487"
           transform="matrix(1,0,0.37127677,0.92852225,0,0)" />
        <rect
           style="fill:#c7b732;fill-opacity:1;stroke-width:3.46145;stroke-linecap:round;stroke-linejoin:round"
           id="rect1"
           width="50.989948"
           height="396.99969"
           x="115.63332"
           y="113.16307"
           ry="8.6764669" />
        <rect
           style="fill:#c7b732;fill-opacity:1;stroke-width:3.27196;stroke-linecap:round;stroke-linejoin:round"
           id="rect3"
           width="50.989948"
           height="354.72495"
           x="-472.43192"
           y="121.60245"
           ry="7.7525487"
           transform="matrix(-1,0,-0.37127677,0.92852225,0,0)" />
        <rect
           style="fill:#c7b732;fill-opacity:1;stroke-width:3.46145;stroke-linecap:round;stroke-linejoin:round"
           id="rect4"
           width="50.989948"
           height="396.99969"
           x="373.86792"
           y="113.16307"
           ry="8.6764669" />
      </g>
      <path
         id="path4"
         style="fill:#c7b732;fill-opacity:1;stroke-width:2.80101;stroke-linecap:round;stroke-linejoin:round"
         d="M 260.47506,31.623393 A 187.14163,187.14163 0 0 0 73.333508,218.76494 187.14163,187.14163 0 0 0 199.97642,395.42599 V 367.99511 A 161.52048,161.52048 0 0 1 98.954683,218.76494 161.52048,161.52048 0 0 1 260.47506,57.244568 161.52048,161.52048 0 0 1 421.99595,218.76494 161.52048,161.52048 0 0 1 321.1344,367.92845 v 27.4376 A 187.14163,187.14163 0 0 0 447.61661,218.76494 187.14163,187.14163 0 0 0 260.47506,31.623393 Z" />
    </g>
  </g>
</svg>
