<?xml version="1.0" encoding="UTF-8" standalone="no"?>
<!-- Created with Inkscape (http://www.inkscape.org/) -->

<svg
   width="500mm"
   height="500mm"
   viewBox="0 0 500 500"
   version="1.1"
   id="svg1"
   inkscape:version="1.3.2 (091e20e, 2023-11-25)"
   sodipodi:docname="Pandas.svg"
   xmlns:inkscape="http://www.inkscape.org/namespaces/inkscape"
   xmlns:sodipodi="http://sodipodi.sourceforge.net/DTD/sodipodi-0.dtd"
   xmlns="http://www.w3.org/2000/svg"
   xmlns:svg="http://www.w3.org/2000/svg">
  <sodipodi:namedview
     id="namedview1"
     pagecolor="#ffffff"
     bordercolor="#000000"
     borderopacity="0.25"
     inkscape:showpageshadow="2"
     inkscape:pageopacity="0.0"
     inkscape:pagecheckerboard="0"
     inkscape:deskcolor="#d1d1d1"
     inkscape:document-units="mm"
     showgrid="false"
     inkscape:zoom="0.25982083"
     inkscape:cx="946.80629"
     inkscape:cy="944.88189"
     inkscape:window-width="1356"
     inkscape:window-height="697"
     inkscape:window-x="0"
     inkscape:window-y="0"
     inkscape:window-maximized="1"
     inkscape:current-layer="layer1" />
  <defs
     id="defs1" />
  <g
     inkscape:label="Layer 1"
     inkscape:groupmode="layer"
     id="layer1">
    <rect
       style="opacity:1;fill:#ffffff;fill-opacity:1;stroke:none;stroke-width:1.99133;stroke-linecap:round;stroke-linejoin:round;stroke-dasharray:none;stroke-dashoffset:0;stroke-opacity:1"
       id="rect19"
       width="515.47577"
       height="511.73154"
       x="-7.5950851"
       y="-6.2385759"
       ry="2.3594277" />
    <g
       id="g20"
       transform="translate(32.067884,48.083583)">
      <g
         id="g19"
         transform="matrix(1.448993,-0.36594332,0.36594332,1.448993,-217.06426,-195.02826)">
        <path
           id="rect14"
           style="opacity:1;fill:#63d000;fill-opacity:1;stroke:#5bc000;stroke-width:2;stroke-linecap:round;stroke-linejoin:round;stroke-dasharray:none;stroke-dashoffset:0;stroke-opacity:1"
           d="m 257.41478,348.13121 -5.8043,4.40593 5.903,7.7742 -0.1049,0.0796 c -1.04102,0.79046 -1.24315,2.26471 -0.45269,3.30574 0.79047,1.04103 2.26524,1.24263 3.30626,0.45217 l 0.1049,-0.0796 20.4215,26.89552 -0.10491,0.0796 c -1.04103,0.79046 -1.24263,2.26524 -0.45217,3.30626 0.79046,1.04103 2.26473,1.24211 3.30575,0.45165 l 0.1049,-0.0796 20.42201,26.89551 -0.10491,0.0796 c -1.04102,0.79046 -1.24262,2.26524 -0.45216,3.30626 0.79045,1.04104 2.26471,1.24263 3.30574,0.45217 l 0.10542,-0.0796 2.83497,3.73414 0.006,-0.004 4.74751,6.25234 1.03766,-10.64535 0.0124,-0.009 -0.01,-0.0134 0.006,-0.0568 -0.0305,0.0238 -2.80034,-3.68763 0.2806,-0.21343 c 1.04102,-0.79046 1.24314,-2.26471 0.45269,-3.30574 -0.79046,-1.04103 -2.26523,-1.24314 -3.30626,-0.45268 l -0.28061,0.21342 -20.422,-26.89552 0.2806,-0.2129 c 1.04103,-0.79046 1.24314,-2.26472 0.45268,-3.30574 -0.79045,-1.04102 -2.26523,-1.24315 -3.30625,-0.45269 l -0.28061,0.21342 -5.58467,-7.3551 c 1.21648,-0.89239 2.41638,-1.77017 2.4536,-1.80248 10.43296,3.45742 18.90013,-6.49266 18.88773,-6.42596 -17.6392,-5.05045 -19.27582,5.90145 -19.27582,5.90145 l -2.25826,2.07326 -14.64459,-19.28668 0.28061,-0.21291 c 1.04103,-0.79046 1.24315,-2.26522 0.45268,-3.30626 -0.79046,-1.04103 -2.26471,-1.24211 -3.30574,-0.45165 l -0.2806,0.21291 z" />
        <path
           id="path18"
           style="opacity:1;fill:#63d000;fill-opacity:1;stroke:#5bc000;stroke-width:2;stroke-linecap:round;stroke-linejoin:round;stroke-dasharray:none;stroke-dashoffset:0;stroke-opacity:1"
           d="m 240.6762,351.90308 4.33307,18.49551 -0.12816,0.03 c -1.27267,0.29815 -2.05774,1.56284 -1.75958,2.83549 0.29815,1.27267 1.56283,2.05671 2.83548,1.75855 l 0.12868,-0.03 7.70289,32.87964 -0.12868,0.0305 c -1.27267,0.29816 -2.05722,1.56283 -1.75906,2.83549 0.29815,1.27267 1.56282,2.05721 2.83548,1.75906 l 0.12868,-0.03 1.06918,4.56458 0.007,-0.001 1.79059,7.64398 5.28184,-9.30073 0.015,-0.003 -0.004,-0.016 0.0289,-0.0496 -0.0383,0.009 -1.05575,-4.50825 0.34314,-0.0806 c 1.27266,-0.29816 2.05721,-1.56283 1.75906,-2.83549 -0.29816,-1.27267 -1.56282,-2.05722 -2.83548,-1.75907 l -0.34314,0.0806 -7.70288,-32.87965 0.34313,-0.0806 c 1.27267,-0.29815 2.05721,-1.5623 1.75906,-2.83497 -0.29815,-1.27265 -1.56281,-2.05722 -2.83548,-1.75907 l -0.34313,0.0801 -3.94395,-16.83463 z" />
        <g
           id="g6"
           transform="translate(0.91667)">
          <path
             style="opacity:1;fill:#fffffc;fill-opacity:1;stroke:#000000;stroke-width:4.99999;stroke-linecap:round;stroke-linejoin:round;stroke-dasharray:none;stroke-dashoffset:0;stroke-opacity:1"
             d="m 239.60076,350.4544 c -2.36728,-13.7171 -5.48222,-27.32808 -2.2157,-40.76673"
             id="path4"
             sodipodi:nodetypes="cc" />
          <path
             style="opacity:1;fill:#000000;fill-opacity:1;stroke:#000000;stroke-width:4.99999;stroke-linecap:round;stroke-linejoin:round;stroke-dasharray:none;stroke-dashoffset:0;stroke-opacity:1"
             d="m 217.73885,293.42789 c 19.47368,20.01285 19.68864,20.09641 39.9701,0.0395 0,0 -17.94838,-7.54293 -39.9701,-0.0395 z"
             id="path5"
             sodipodi:nodetypes="ccsc" />
          <path
             style="opacity:1;fill:none;fill-opacity:1;stroke:#000000;stroke-width:4.99999;stroke-linecap:round;stroke-linejoin:round;stroke-dasharray:none;stroke-dashoffset:0;stroke-opacity:1"
             d="m 204.87496,345.92913 c 1.6e-4,-10e-5 14.93977,8.9121 31.2745,7.23161 5.87365,-0.60427 12.29222,-5.01206 19.55719,-4.01193 4.06793,0.56001 12.36232,-0.37126 20.27969,-6.54867"
             id="path6"
             sodipodi:nodetypes="cssc" />
        </g>
        <g
           id="g11"
           transform="rotate(13.186205,223.34507,288.86356)">
          <circle
             style="fill:#000000;fill-opacity:1;stroke:#000000;stroke-width:4.99999;stroke-linecap:round;stroke-linejoin:round;stroke-dasharray:none;stroke-dashoffset:0;stroke-opacity:1"
             id="path7"
             cx="293.55823"
             cy="277.97604"
             r="22.312389" />
          <circle
             style="fill:#000000;fill-opacity:1;stroke:#000000;stroke-width:3.03191;stroke-linecap:round;stroke-linejoin:round;stroke-dasharray:none;stroke-dashoffset:0;stroke-opacity:1"
             id="circle7"
             cx="266.86578"
             cy="254.1579"
             r="13.529849" />
          <path
             style="fill:#000000;fill-opacity:1;stroke:none;stroke-width:4.99999;stroke-linecap:round;stroke-linejoin:round;stroke-dasharray:none;stroke-dashoffset:0;stroke-opacity:1"
             d="m 268.76347,280.00582 c 0,0 -1.4421,-7.55927 -9.8336,-12.95699 0.002,-0.046 13.09324,1.26254 13.09324,1.26254 z"
             id="path8"
             sodipodi:nodetypes="cccc" />
          <path
             style="fill:#000000;fill-opacity:1;stroke:none;stroke-width:4.99999;stroke-linecap:round;stroke-linejoin:round;stroke-dasharray:none;stroke-dashoffset:0;stroke-opacity:1"
             d="m 279.08459,245.29092 c 0,0 3.93601,4.73772 14.1847,7.96099 0.0165,0.043 -12.51066,4.06327 -12.51066,4.06327 z"
             id="path9"
             sodipodi:nodetypes="cccc" />
          <circle
             style="opacity:1;fill:#ffffff;fill-opacity:1;stroke:none;stroke-width:4.99999;stroke-linecap:round;stroke-linejoin:round;stroke-dasharray:none;stroke-dashoffset:0;stroke-opacity:1"
             id="path11"
             cx="267.71558"
             cy="254.28415"
             r="8.0258408" />
        </g>
        <g
           id="g13"
           transform="matrix(-0.97363385,0.22811646,0.22811646,0.97363385,404.05011,-43.332467)">
          <circle
             style="fill:#000000;fill-opacity:1;stroke:#000000;stroke-width:4.99999;stroke-linecap:round;stroke-linejoin:round;stroke-dasharray:none;stroke-dashoffset:0;stroke-opacity:1"
             id="circle11"
             cx="293.55823"
             cy="277.97604"
             r="22.312389" />
          <circle
             style="fill:#000000;fill-opacity:1;stroke:#000000;stroke-width:3.03191;stroke-linecap:round;stroke-linejoin:round;stroke-dasharray:none;stroke-dashoffset:0;stroke-opacity:1"
             id="circle12"
             cx="266.86578"
             cy="254.1579"
             r="13.529849" />
          <path
             style="fill:#000000;fill-opacity:1;stroke:none;stroke-width:4.99999;stroke-linecap:round;stroke-linejoin:round;stroke-dasharray:none;stroke-dashoffset:0;stroke-opacity:1"
             d="m 268.76347,280.00582 c 0,0 -1.4421,-7.55927 -9.8336,-12.95699 0.002,-0.046 13.09324,1.26254 13.09324,1.26254 z"
             id="path12"
             sodipodi:nodetypes="cccc" />
          <path
             style="fill:#000000;fill-opacity:1;stroke:none;stroke-width:4.99999;stroke-linecap:round;stroke-linejoin:round;stroke-dasharray:none;stroke-dashoffset:0;stroke-opacity:1"
             d="m 279.08459,245.29092 c 0,0 3.93601,4.73772 14.1847,7.96099 0.0165,0.043 -12.51066,4.06327 -12.51066,4.06327 z"
             id="path13"
             sodipodi:nodetypes="cccc" />
          <circle
             style="opacity:1;fill:#ffffff;fill-opacity:1;stroke:none;stroke-width:4.99999;stroke-linecap:round;stroke-linejoin:round;stroke-dasharray:none;stroke-dashoffset:0;stroke-opacity:1"
             id="circle13"
             cx="267.71558"
             cy="254.28415"
             r="8.0258408" />
        </g>
      </g>
      <path
         id="path19"
         style="opacity:1;fill:#000000;fill-opacity:1;stroke:none;stroke-width:2.58804;stroke-linecap:round;stroke-linejoin:round;stroke-dasharray:none;stroke-dashoffset:0;stroke-opacity:1"
         d="m 306.80925,-20.891035 a 38.961601,38.961601 0 0 0 -38.96192,38.961932 38.961601,38.961601 0 0 0 0.17252,2.405321 c 18.71273,0.290033 43.9069,5.594087 63.24718,27.830714 a 38.961601,38.961601 0 0 0 14.50349,-30.236035 38.961601,38.961601 0 0 0 -38.96127,-38.961932 z" />
      <path
         id="path20"
         style="opacity:1;fill:#000000;fill-opacity:1;stroke:none;stroke-width:2.7177;stroke-linecap:round;stroke-linejoin:round;stroke-dasharray:none;stroke-dashoffset:0;stroke-opacity:1"
         d="m 63.683111,42.712178 a 40.913579,40.913579 0 0 1 57.859789,0.377021 40.913579,40.913579 0 0 1 1.64542,1.924892 C 109.41722,59.034839 94.500908,81.584054 96.450325,112.46962 A 40.913579,40.913579 0 0 1 63.306587,100.57149 40.913579,40.913579 0 0 1 63.683111,42.712178 Z" />
    </g>
    <path
       id="text20"
       style="font-size:90.9995px;line-height:1.5;font-family:Outfit;-inkscape-font-specification:Outfit;letter-spacing:0px;word-spacing:0px;fill:#000000;fill-opacity:1;stroke:none;stroke-width:6.87872;stroke-linecap:round;stroke-linejoin:round;stroke-dasharray:none;stroke-dashoffset:0;stroke-opacity:1"
       d="M 300.2132 387.51381 L 300.2132 415.35449 C 298.70589 413.29093 296.81042 411.63797 294.48022 410.44575 C 291.87157 409.05042 288.95959 408.35234 285.74432 408.35234 C 281.74034 408.35234 278.16112 409.35378 275.00647 411.35577 C 271.85182 413.35776 269.3341 416.05719 267.45344 419.4545 C 265.63345 422.85181 264.72389 426.67383 264.72389 430.92047 C 264.72389 435.16707 265.63345 438.98916 267.45344 442.38643 C 269.3341 445.78375 271.85182 448.48322 275.00647 450.48516 C 278.16112 452.42649 281.74034 453.39713 285.74432 453.39713 C 289.02025 453.39713 291.96307 452.72984 294.57168 451.39519 C 296.85554 450.17359 298.71984 448.53265 300.2132 446.52055 L 300.2132 452.48711 L 308.49435 452.48711 L 308.49435 387.51381 L 300.2132 387.51381 z M 124.9686 389.33386 A 3.8853135 3.8853135 0 0 1 124.96498 389.33954 L 121.91246 389.33954 L 113.39773 389.33954 L 113.39773 401.66282 A 3.8853135 3.8853135 0 0 1 113.39205 401.66541 L 113.39205 452.48711 L 121.94604 452.48711 L 121.94604 427.91755 L 136.86968 427.91755 C 140.75232 427.91755 144.21041 427.12857 147.24373 425.55129 C 150.33767 423.9133 152.7641 421.66864 154.52338 418.81733 C 156.34337 415.90535 157.25345 412.50835 157.25345 408.6257 C 157.25345 404.68244 156.34337 401.28488 154.52338 398.43356 C 152.7641 395.52158 150.33767 393.27689 147.24373 391.69961 C 144.21041 390.12228 140.75232 389.33386 136.86968 389.33386 L 124.9686 389.33386 z M 121.94604 396.79542 L 136.32398 396.79542 C 138.68996 396.79542 140.78268 397.281 142.60267 398.25166 C 144.48328 399.22232 145.93959 400.58718 146.97087 402.3465 C 148.06287 404.10582 148.6085 406.19909 148.6085 408.6257 C 148.6085 411.05235 148.06287 413.14507 146.97087 414.90439 C 145.93959 416.66371 144.48328 418.02909 142.60267 418.99975 C 140.78268 419.97041 138.68996 420.45547 136.32398 420.45547 L 121.94604 420.45547 L 121.94604 396.79542 z M 183.0064 408.35234 C 179.00243 408.35234 175.39292 409.35378 172.1776 411.35577 C 169.023 413.35776 166.50519 416.05719 164.62458 419.4545 C 162.80459 422.85181 161.89451 426.67383 161.89451 430.92047 C 161.89451 435.16707 162.80459 438.98916 164.62458 442.38643 C 166.50519 445.78375 169.05328 448.48322 172.26855 450.48516 C 175.48387 452.42649 179.06309 453.39713 183.0064 453.39713 C 186.34305 453.39713 189.28527 452.72984 191.83325 451.39519 C 194.1069 450.17905 195.94026 448.54701 197.38433 446.54742 L 197.38433 452.48711 L 205.66497 452.48711 L 205.66497 409.26236 L 197.38433 409.26236 L 197.38433 415.23254 C 195.89098 413.22691 194.02627 411.61429 191.7423 410.44575 C 189.19432 409.05042 186.28238 408.35234 183.0064 408.35234 z M 239.51716 408.35234 C 236.24122 408.35234 233.29844 409.11099 230.68979 410.62765 C 228.72405 411.72483 227.08712 413.13336 225.77588 414.85065 L 225.77588 409.26236 L 217.5862 409.26236 L 217.5862 452.48711 L 225.77588 452.48711 L 225.77588 427.28038 C 225.77588 425.09639 226.2615 423.15506 227.23212 421.45645 C 228.20279 419.75779 229.5374 418.42318 231.23601 417.45256 C 232.93467 416.4819 234.87596 415.99631 237.05995 415.99631 C 240.33593 415.99631 243.00508 417.05833 245.06773 419.18165 C 247.13038 421.30497 248.16211 424.0044 248.16211 427.28038 L 248.16211 452.48711 L 256.35179 452.48711 L 256.35179 425.64224 C 256.35179 422.66959 255.62394 419.8793 254.16795 417.27065 C 252.71196 414.60138 250.7101 412.44754 248.16211 410.80955 C 245.67484 409.17156 242.79314 408.35234 239.51716 408.35234 z M 338.79689 408.35234 C 334.79296 408.35234 331.18341 409.35378 327.96809 411.35577 C 324.81349 413.35776 322.29572 416.05719 320.41507 419.4545 C 318.59508 422.85181 317.685 426.67383 317.685 430.92047 C 317.685 435.16707 318.59508 438.98916 320.41507 442.38643 C 322.29572 445.78375 324.84373 448.48322 328.05905 450.48516 C 331.27432 452.42649 334.85362 453.39713 338.79689 453.39713 C 342.13354 453.39713 345.07628 452.72984 347.62426 451.39519 C 349.89773 450.17914 351.73076 448.54731 353.17483 446.54794 L 353.17483 452.48711 L 361.45597 452.48711 L 361.45597 409.26236 L 353.17483 409.26236 L 353.17483 415.23254 C 351.68145 413.22697 349.81723 411.61427 347.53331 410.44575 C 344.98533 409.05042 342.07287 408.35234 338.79689 408.35234 z M 387.48177 408.35234 C 384.2665 408.35234 381.5059 408.8682 379.20063 409.89953 C 376.95597 410.93085 375.1969 412.41737 373.92291 414.35869 C 372.64892 416.23934 372.01192 418.48403 372.01192 421.09264 C 372.01192 423.70129 372.55807 425.79401 373.65006 427.37133 C 374.80272 428.94865 376.25843 430.19237 378.01775 431.10237 C 379.77707 432.01236 381.62751 432.77102 383.56884 433.37768 C 385.57078 433.92368 387.45155 434.4996 389.21087 435.10626 C 390.97019 435.65225 392.39562 436.38063 393.48761 437.29062 C 394.64027 438.13995 395.2167 439.35287 395.2167 440.93019 C 395.2167 442.50752 394.51913 443.75124 393.12381 444.66123 C 391.72848 445.51056 389.75691 445.93557 387.20892 445.93557 C 384.66098 445.93557 382.3552 445.48027 380.29255 444.57028 C 378.2299 443.59962 376.41026 442.14391 374.83293 440.20259 L 369.5547 445.4803 C 370.88936 447.11829 372.46677 448.54423 374.28671 449.75756 C 376.1067 450.91022 378.07828 451.81978 380.2016 452.48711 C 382.38558 453.09377 384.69136 453.39713 387.11797 453.39713 C 391.97127 453.39713 395.82358 452.2145 398.67489 449.84851 C 401.58687 447.48253 403.04258 444.26719 403.04258 440.20259 C 403.04258 437.53327 402.46615 435.37947 401.31349 433.74148 C 400.2215 432.10353 398.79607 430.7992 397.03675 429.82854 C 395.27743 428.85792 393.42699 428.09923 391.48566 427.55323 C 389.54438 426.94657 387.66362 426.37065 385.84363 425.82465 C 384.08431 425.27866 382.65888 424.61137 381.56689 423.82271 C 380.4749 423.03405 379.92875 421.91146 379.92875 420.45547 C 379.92875 418.99948 380.53547 417.87741 381.74879 417.08875 C 383.02278 416.23943 384.84298 415.81441 387.20892 415.81441 C 389.45358 415.81441 391.45544 416.23943 393.21476 417.08875 C 395.03475 417.93808 396.55154 419.15104 397.76487 420.72832 L 403.04258 415.45061 C 401.34393 413.08463 399.1598 411.32504 396.49053 410.17238 C 393.88188 408.95905 390.87909 408.35234 387.48177 408.35234 z M 184.28022 416.08778 C 187.01021 416.08778 189.4068 416.72478 191.46945 417.99878 C 193.5321 419.21206 195.10947 420.94089 196.20146 423.18554 C 197.35412 425.36952 197.93004 427.94782 197.93004 430.92047 C 197.93004 435.22773 196.68679 438.77675 194.19952 441.56736 C 191.7122 444.29734 188.43578 445.6622 184.37118 445.6622 C 181.64119 445.6622 179.2148 445.0252 177.09152 443.75121 C 174.9682 442.47722 173.29998 440.74843 172.08665 438.56444 C 170.93399 436.31983 170.35756 433.74146 170.35756 430.82952 C 170.35756 427.9782 170.93399 425.46047 172.08665 423.27649 C 173.29998 421.03184 174.93791 419.27273 177.00057 417.99878 C 179.12385 416.72478 181.55028 416.08778 184.28022 416.08778 z M 287.01866 416.08778 C 289.7486 416.08778 292.11447 416.72478 294.11641 417.99878 C 296.17907 419.27273 297.78672 421.00155 298.93938 423.18554 C 300.15266 425.36952 300.75942 427.94782 300.75942 430.92047 C 300.75942 433.77174 300.18299 436.31983 299.03033 438.56444 C 297.87767 440.74843 296.27002 442.47722 294.20736 443.75121 C 292.20542 445.0252 289.83955 445.6622 287.10961 445.6622 C 284.37962 445.6622 281.95275 445.0252 279.82943 443.75121 C 277.76678 442.47722 276.12884 440.74843 274.91552 438.56444 C 273.76286 436.31983 273.18643 433.74146 273.18643 430.82952 C 273.18643 427.9782 273.76286 425.46047 274.91552 423.27649 C 276.12884 421.03184 277.76678 419.27273 279.82943 417.99878 C 281.89208 416.72478 284.28867 416.08778 287.01866 416.08778 z M 340.07123 416.08778 C 342.80121 416.08778 345.19729 416.72478 347.25994 417.99878 C 349.32259 419.21206 350.89996 420.94089 351.99195 423.18554 C 353.14461 425.36952 353.72104 427.94782 353.72104 430.92047 C 353.72104 435.22773 352.47728 438.77675 349.99001 441.56736 C 347.50269 444.29734 344.22682 445.6622 340.16218 445.6622 C 337.43224 445.6622 335.00529 445.0252 332.88201 443.75121 C 330.75869 442.47722 329.09047 440.74843 327.87714 438.56444 C 326.72453 436.31983 326.14805 433.74146 326.14805 430.82952 C 326.14805 427.9782 326.72453 425.46047 327.87714 423.27649 C 329.09047 421.03184 330.7284 419.27273 332.79106 417.99878 C 334.91434 416.72478 337.34125 416.08778 340.07123 416.08778 z " />
    <circle
       style="opacity:1;fill:#000000;fill-opacity:1;stroke:none;stroke-width:2;stroke-linecap:round;stroke-linejoin:round;stroke-dasharray:none;stroke-dashoffset:0;stroke-opacity:1"
       id="path23"
       cx="396.47018"
       cy="410.84766"
       r="4.9555798" />
    <circle
       style="opacity:1;fill:#000000;fill-opacity:1;stroke:none;stroke-width:2;stroke-linecap:round;stroke-linejoin:round;stroke-dasharray:none;stroke-dashoffset:0;stroke-opacity:1"
       id="circle23"
       cx="376.65048"
       cy="412.64194"
       r="4.9555798" />
    <text
       xml:space="preserve"
       style="font-weight:600;font-size:31.75px;line-height:1;font-family:Outfit;-inkscape-font-specification:'Outfit Semi-Bold';font-variation-settings:normal;letter-spacing:0px;word-spacing:0px;opacity:0.315;vector-effect:none;fill:#000000;fill-opacity:1;stroke-width:11.3351;stroke-linecap:round;stroke-linejoin:round;stroke-miterlimit:4;stroke-dasharray:none;stroke-dashoffset:0;stroke-opacity:1;-inkscape-stroke:none"
       x="103.0475"
       y="432.00369"
       id="text1"><tspan
         sodipodi:role="line"
         id="tspan1"
         style="stroke-width:11.3351"
         x="103.0475"
         y="432.00369" /></text>
    <circle
       style="opacity:1;fill:#000000;fill-opacity:1;stroke:none;stroke-width:2;stroke-linecap:round;stroke-linejoin:round;stroke-dasharray:none;stroke-dashoffset:0;stroke-opacity:1"
       id="circle2"
       cx="135.7469"
       cy="390.03308"
       r="4.9555798" />
    <circle
       style="opacity:1;fill:#000000;fill-opacity:1;stroke:none;stroke-width:2;stroke-linecap:round;stroke-linejoin:round;stroke-dasharray:none;stroke-dashoffset:0;stroke-opacity:1"
       id="circle3"
       cx="115.9272"
       cy="391.82736"
       r="4.9555798" />
  </g>
</svg>
