<?xml version="1.0" encoding="UTF-8" standalone="no"?>
<!-- Created with Inkscape (http://www.inkscape.org/) -->

<svg
   width="500mm"
   height="500mm"
   viewBox="0 0 500 500"
   version="1.1"
   id="svg1"
   inkscape:version="1.3.2 (091e20e, 2023-11-25)"
   xml:space="preserve"
   sodipodi:docname="powerpoint.svg"
   xmlns:inkscape="http://www.inkscape.org/namespaces/inkscape"
   xmlns:sodipodi="http://sodipodi.sourceforge.net/DTD/sodipodi-0.dtd"
   xmlns="http://www.w3.org/2000/svg"
   xmlns:svg="http://www.w3.org/2000/svg"><sodipodi:namedview
     id="namedview1"
     pagecolor="#ffffff"
     bordercolor="#000000"
     borderopacity="0.25"
     inkscape:showpageshadow="2"
     inkscape:pageopacity="0.0"
     inkscape:pagecheckerboard="0"
     inkscape:deskcolor="#d1d1d1"
     inkscape:document-units="mm"
     showgrid="false"
     inkscape:zoom="0.25982083"
     inkscape:cx="596.56494"
     inkscape:cy="944.88189"
     inkscape:window-width="1356"
     inkscape:window-height="697"
     inkscape:window-x="0"
     inkscape:window-y="0"
     inkscape:window-maximized="1"
     inkscape:current-layer="layer1" /><defs
     id="defs1" /><g
     inkscape:label="Layer 1"
     inkscape:groupmode="layer"
     id="layer1"><circle
       style="fill:#d35230;fill-opacity:1;stroke-width:10;stroke-linecap:round;stroke-linejoin:round"
       id="path1"
       cx="264.81351"
       cy="235.59366"
       r="177.9518" /><path
       id="circle3"
       style="fill:#ff8f6b;fill-opacity:1;stroke-width:10;stroke-linecap:round;stroke-linejoin:round"
       d="M 87.036516,233.14949 A 177.9518,177.9518 0 0 1 264.81378,57.641861 177.9518,177.9518 0 0 1 442.59052,233.14949 Z" /><path
       id="path4"
       style="fill:#ed6c47;fill-opacity:1;stroke-width:10;stroke-linecap:round;stroke-linejoin:round"
       d="M 264.38564,57.64196 A 177.9518,177.9518 0 0 0 86.608384,233.14959 H 265.94988 V 57.744796 a 177.9518,177.9518 0 0 0 -1.56424,-0.102836 z" /><path
       id="rect6"
       style="fill:#0e0e0e;fill-opacity:1;stroke-width:11.8525;stroke-linecap:round;stroke-linejoin:round;opacity:0.38015031"
       d="M 128.45573 121.55951 A 177.9518 177.9518 0 0 0 86.861882 235.59389 A 177.9518 177.9518 0 0 0 132.24309 354.04351 L 231.98739 354.04351 C 245.00782 354.04351 255.49035 343.56149 255.49035 330.54106 L 255.49035 145.06195 C 255.49035 132.04152 245.00782 121.55951 231.98739 121.55951 L 128.45573 121.55951 z " /><path
       id="rect5"
       style="fill:#0e0e0e;fill-opacity:1;stroke-width:10.7856;stroke-linecap:round;stroke-linejoin:round;opacity:0.44759642"
       d="M 120.62261 132.02295 A 177.9518 177.9518 0 0 0 86.861882 235.59389 A 177.9518 177.9518 0 0 0 123.92835 343.58006 L 223.63958 343.58006 C 235.48798 343.58006 245.0269 334.04114 245.0269 322.19274 L 245.0269 153.41027 C 245.0269 141.56187 235.48798 132.02295 223.63958 132.02295 L 120.62261 132.02295 z " /><rect
       style="fill:#c43e1c;fill-opacity:1;stroke-width:10;stroke-linecap:round;stroke-linejoin:round"
       id="rect4"
       width="196.14798"
       height="196.14798"
       x="41.174297"
       y="139.72751"
       ry="19.829279" /><text
       xml:space="preserve"
       style="font-style:normal;font-variant:normal;font-weight:bold;font-stretch:normal;font-size:186.73px;line-height:1.5;font-family:'Noto Sans Mono';-inkscape-font-specification:'Noto Sans Mono Bold';letter-spacing:0px;word-spacing:0px;fill:#f9f7f7;fill-opacity:1;stroke-width:58.8126;stroke-linecap:round;stroke-linejoin:round"
       x="79.49469"
       y="304.46411"
       id="text4"><tspan
         sodipodi:role="line"
         id="tspan4"
         style="font-style:normal;font-variant:normal;font-weight:bold;font-stretch:normal;font-family:'Noto Sans Mono';-inkscape-font-specification:'Noto Sans Mono Bold';fill:#f9f7f7;fill-opacity:1;stroke-width:58.8126"
         x="79.49469"
         y="304.46411">P</tspan></text></g></svg>
