<?xml version="1.0" encoding="UTF-8" standalone="no"?>
<!-- Created with Inkscape (http://www.inkscape.org/) -->

<svg
   width="500mm"
   height="500mm"
   viewBox="0 0 500 500"
   version="1.1"
   id="svg1"
   inkscape:version="1.3.2 (091e20e, 2023-11-25)"
   xml:space="preserve"
   sodipodi:docname="Python.svg"
   xmlns:inkscape="http://www.inkscape.org/namespaces/inkscape"
   xmlns:sodipodi="http://sodipodi.sourceforge.net/DTD/sodipodi-0.dtd"
   xmlns="http://www.w3.org/2000/svg"
   xmlns:svg="http://www.w3.org/2000/svg"><sodipodi:namedview
     id="namedview1"
     pagecolor="#ffffff"
     bordercolor="#000000"
     borderopacity="0.25"
     inkscape:showpageshadow="2"
     inkscape:pageopacity="0.0"
     inkscape:pagecheckerboard="0"
     inkscape:deskcolor="#d1d1d1"
     inkscape:document-units="mm"
     showgrid="false"
     inkscape:zoom="0.36744215"
     inkscape:cx="1023.2903"
     inkscape:cy="929.39801"
     inkscape:window-width="1356"
     inkscape:window-height="697"
     inkscape:window-x="0"
     inkscape:window-y="0"
     inkscape:window-maximized="1"
     inkscape:current-layer="layer1" /><defs
     id="defs1" /><g
     inkscape:label="Layer 1"
     inkscape:groupmode="layer"
     id="layer1"><g
       id="g5"
       transform="translate(7.9480231)"><path
         id="path1"
         style="fill:#3879b0;fill-opacity:1;stroke-width:10;stroke-linecap:round;stroke-linejoin:round"
         d="m 243.80402,74.372721 c -75.90927,0 -77.1369,35.023699 -77.1369,35.023699 l 0.48576,42.66665 84.76124,1.11156 V 165.6333 H 127.15429 c 0,0 -52.36012,-1.26764 -52.36012,84.92763 0,86.19529 48.35054,85.65266 48.35054,85.65266 l 30.07931,0.27698 v -0.0114 h 0.94567 c 0.0866,-4.05703 0.16382,-12.47634 0.16382,-35.34254 0,-57.28661 43.81334,-56.91849 43.81334,-56.91849 0,0 28.15121,0.59531 83.44194,0.59531 55.29077,0 55.43796,-41.89667 55.43796,-41.89667 0,0 0.41291,-51.58777 0,-72.87824 -0.41291,-21.29046 -8.31681,-32.062121 -8.31681,-32.062121 0,0 -8.99666,-23.603728 -84.90592,-23.603728 z m -41.49515,26.628869 a 15.667257,15.667257 0 0 1 15.66727,15.66726 15.667257,15.667257 0 0 1 -15.66727,15.66726 15.667257,15.667257 0 0 1 -15.66726,-15.66726 15.667257,15.667257 0 0 1 15.66726,-15.66726 z" /><path
         id="path2"
         style="fill:#ffd546;fill-opacity:1;stroke-width:10;stroke-linecap:round;stroke-linejoin:round"
         d="m 347.29688,162.26141 c -0.0868,4.03995 -0.16433,12.46046 -0.16433,35.37356 0,57.28661 -43.81335,56.91848 -43.81335,56.91848 0,0 -28.1512,-0.59531 -83.44193,-0.59531 -55.29078,0 -55.43796,41.89667 -55.43796,41.89667 0,0 -0.41291,51.58777 0,72.87824 0.41291,21.29047 8.3168,32.06212 8.3168,32.06212 0,0 8.99667,23.60373 84.90593,23.60373 75.90926,0 77.13689,-35.0237 77.13689,-35.0237 l -0.48575,-42.66665 -84.76124,-1.11156 v -12.45867 h 124.75983 c 0,0 52.36011,1.26764 52.36011,-84.92763 0,-86.19529 -48.35054,-85.65265 -48.35054,-85.65265 l -30.73662,-0.28319 c 0,0 -5.2e-4,-0.0134 -5.2e-4,-0.0134 z m -48.1397,204.1741 a 15.667257,15.667257 0 0 1 15.66726,15.66727 15.667257,15.667257 0 0 1 -15.66726,15.66726 15.667257,15.667257 0 0 1 -15.66726,-15.66726 15.667257,15.667257 0 0 1 15.66726,-15.66727 z" /></g></g></svg>
