<?xml version="1.0" encoding="UTF-8" standalone="no"?>
<!-- Created with Inkscape (http://www.inkscape.org/) -->

<svg
   width="500mm"
   height="500mm"
   viewBox="0 0 500 500"
   version="1.1"
   id="svg1"
   inkscape:version="1.3.2 (091e20e, 2023-11-25)"
   sodipodi:docname="RobotX.svg"
   xmlns:inkscape="http://www.inkscape.org/namespaces/inkscape"
   xmlns:sodipodi="http://sodipodi.sourceforge.net/DTD/sodipodi-0.dtd"
   xmlns="http://www.w3.org/2000/svg"
   xmlns:svg="http://www.w3.org/2000/svg">
  <sodipodi:namedview
     id="namedview1"
     pagecolor="#ffffff"
     bordercolor="#000000"
     borderopacity="0.25"
     inkscape:showpageshadow="2"
     inkscape:pageopacity="0.0"
     inkscape:pagecheckerboard="0"
     inkscape:deskcolor="#d1d1d1"
     inkscape:document-units="mm"
     showgrid="false"
     inkscape:zoom="0.25982083"
     inkscape:cx="944.88189"
     inkscape:cy="944.88189"
     inkscape:window-width="1356"
     inkscape:window-height="697"
     inkscape:window-x="0"
     inkscape:window-y="0"
     inkscape:window-maximized="1"
     inkscape:current-layer="layer1" />
  <defs
     id="defs1">
    <inkscape:path-effect
       effect="fillet_chamfer"
       id="path-effect3"
       is_visible="true"
       lpeversion="1"
       nodesatellites_param="F,0,0,1,0,0,0,1 @ F,0,0,1,0,0,0,1 @ F,0,0,1,0,0,0,1 @ F,0,0,1,0,0,0,1 @ F,0,0,1,0,0,0,1 @ F,0,0,1,0,0,0,1 @ F,0,0,1,0,0,0,1"
       radius="0"
       unit="px"
       method="auto"
       mode="F"
       chamfer_steps="1"
       flexible="false"
       use_knot_distance="true"
       apply_no_radius="true"
       apply_with_radius="true"
       only_selected="false"
       hide_knots="false" />
    <inkscape:path-effect
       effect="fillet_chamfer"
       id="path-effect1"
       is_visible="true"
       lpeversion="1"
       nodesatellites_param="F,0,0,1,0,0,0,1 @ F,0,0,1,0,0,0,1 @ F,0,0,1,0,0,0,1 @ F,0,0,1,0,0,0,1 @ F,0,0,1,0,0,0,1 @ F,0,0,1,0,0,0,1 @ F,0,0,1,0,0,0,1"
       radius="0"
       unit="px"
       method="auto"
       mode="F"
       chamfer_steps="1"
       flexible="false"
       use_knot_distance="true"
       apply_no_radius="true"
       apply_with_radius="true"
       only_selected="false"
       hide_knots="false" />
  </defs>
  <g
     inkscape:label="Layer 1"
     inkscape:groupmode="layer"
     id="layer1">
    <g
       id="g13"
       transform="translate(15.346897)">
      <path
         id="path2"
         style="opacity:1;fill:#840000;fill-opacity:1;stroke-width:0;stroke-linecap:round;stroke-linejoin:round"
         d="m 444.43491,108.09627 -336.45301,0.004 c -28.50736,-0.0153 -49.41602,23.52333 -49.41602,51.80683 0,62.81138 0.07375,216.58145 0.07375,216.58145 0.113075,0.01 247.13584,0.11461 334.70788,0.0389 28.2835,-0.0245 51.05293,-22.77004 51.05293,-51.05354 0,-70.58585 0.0325,-217.37822 0.0345,-217.37779 z m -314.54466,42.413 a 36.614846,37.81038 0 0 1 36.61491,37.81044 36.614846,37.81038 0 0 1 -36.61491,37.81045 36.614846,37.81038 0 0 1 -36.614915,-37.81045 36.614846,37.81038 0 0 1 36.614915,-37.81044 z m 179.72458,0 a 36.614846,37.81038 0 0 1 36.61491,37.81044 36.614846,37.81038 0 0 1 -36.61491,37.81045 36.614846,37.81038 0 0 1 -36.61411,-37.81045 36.614846,37.81038 0 0 1 36.61411,-37.81044 z"
         transform="matrix(0.64464793,0,0,0.62426468,93.303777,-6.4838878)" />
      <path
         id="rect1"
         style="opacity:1;fill:#ff0c0c;stroke-width:0;stroke-linecap:round;stroke-linejoin:round"
         d="m 444.4351,108.09627 -336.45306,0.004 c -28.507358,-0.0153 -49.416155,23.52333 -49.416155,51.80683 0,62.81138 0.07367,216.58145 0.07367,216.58145 0.113074,0.01 247.135195,0.11461 334.707235,0.0389 28.2835,-0.0245 51.05354,-22.77004 51.05354,-51.05354 0,-70.58585 0.0328,-217.37822 0.0348,-217.37779 z m -312.21599,42.413 a 37.81038,37.81038 0 0 1 37.81045,37.81044 37.81038,37.81038 0 0 1 -37.81045,37.81045 37.81038,37.81038 0 0 1 -37.81045,-37.81045 37.81038,37.81038 0 0 1 37.81045,-37.81044 z m 185.59287,0 a 37.81038,37.81038 0 0 1 37.81045,37.81044 37.81038,37.81038 0 0 1 -37.81045,37.81045 37.81038,37.81038 0 0 1 -37.80962,-37.81045 37.81038,37.81038 0 0 1 37.80962,-37.81044 z"
         transform="matrix(0.62426468,0,0,0.62426468,94.497537,-6.4838878)" />
    </g>
    <path
       style="opacity:1;fill:none;fill-opacity:1;stroke:#ff0c0c;stroke-width:5;stroke-linecap:round;stroke-linejoin:round;stroke-dasharray:none;stroke-opacity:1"
       d="m 161.98511,215.89378 h -37.6845 v 29.70962"
       id="path3" />
    <circle
       style="opacity:1;fill:none;fill-opacity:1;stroke:#ff0c0c;stroke-width:4.99999;stroke-linecap:round;stroke-linejoin:round;stroke-dasharray:none;stroke-opacity:1"
       id="path4"
       cx="124.36738"
       cy="258.53375"
       r="11.490029" />
    <path
       style="opacity:1;fill:none;fill-opacity:1;stroke:#ff0c0c;stroke-width:4.99999;stroke-linecap:round;stroke-linejoin:round;stroke-dasharray:none;stroke-opacity:1"
       d="m 168.27996,223.33869 v 53.82833"
       id="path5" />
    <circle
       style="opacity:1;fill:none;fill-opacity:1;stroke:#ff0c0c;stroke-width:4.99999;stroke-linecap:round;stroke-linejoin:round;stroke-dasharray:none;stroke-opacity:1"
       id="circle5"
       cx="167.95869"
       cy="289.54263"
       r="11.490029" />
    <path
       style="opacity:1;fill:none;fill-opacity:1;stroke:#ff0c0c;stroke-width:5;stroke-linecap:round;stroke-linejoin:round;stroke-dasharray:none;stroke-opacity:1"
       d="m 117.98551,161.88516 v 37.6845 h 29.70962"
       id="path6" />
    <circle
       style="opacity:1;fill:none;fill-opacity:1;stroke:#ff0c0c;stroke-width:4.99999;stroke-linecap:round;stroke-linejoin:round;stroke-dasharray:none;stroke-opacity:1"
       id="circle6"
       cx="117.87211"
       cy="148.51903"
       r="11.490029" />
    <text
       xml:space="preserve"
       style="font-size:63.2083px;line-height:1;font-family:Outfit;-inkscape-font-specification:Outfit;letter-spacing:0px;word-spacing:0px;fill:#1a1a1a;fill-opacity:1;stroke:none;stroke-width:19.9081;stroke-linecap:round;stroke-linejoin:round;stroke-dasharray:none;stroke-opacity:1"
       x="110.71761"
       y="389.14505"
       id="text9"><tspan
         sodipodi:role="line"
         id="tspan9"
         style="fill:#1a1a1a;fill-opacity:1;stroke:none;stroke-width:19.9081"
         x="110.71761"
         y="389.14505">ROBOT</tspan></text>
    <path
       id="path13"
       style="fill:#000000;fill-opacity:1;stroke:none;stroke-width:7.17913;stroke-linecap:round;stroke-linejoin:round;stroke-dasharray:none;stroke-opacity:1;opacity:0.48432355"
       d="m 377.13098,304.9445 c 0,0 -9.13171,9.3803 -19.53163,27.07432 -9.86605,-5.77949 -20.87375,-10.82945 -33.11839,-14.68489 0.10497,0.69367 -6.15259,8.81548 -6.15259,8.81548 0,0 14.51329,5.19363 33.7137,15.9675 -9.35751,18.17377 -18.63101,42.68124 -22.42137,72.86532 0,0 10.69738,-37.42018 34.62838,-65.5929 23.67887,14.94372 50.89625,37.30189 67.03725,67.75866 0,0 -16.24986,-44.01195 -59.54055,-75.79124 11.01584,-10.72978 24.33447,-19.09342 40.17067,-21.73149 0.0455,0.18714 -34.78547,-14.68076 -34.78547,-14.68076 z" />
    <path
       id="path9"
       style="fill:#840000;fill-opacity:1;stroke:none;stroke-width:7.17913;stroke-linecap:round;stroke-linejoin:round;stroke-dasharray:none;stroke-opacity:1"
       d="M 371.50394 298.12082 C 371.50394 298.12082 362.37223 307.50112 351.97231 325.19514 C 342.10626 319.41565 331.09856 314.36569 318.85392 310.51025 C 318.95889 311.20392 312.70133 319.32573 312.70133 319.32573 C 312.70133 319.32573 327.21462 324.51936 346.41503 335.29323 C 337.05752 353.467 327.78402 377.97447 323.99366 408.15855 C 323.99366 408.15855 334.69104 370.73837 358.62204 342.56565 C 382.30091 357.50937 409.51829 379.86754 425.65929 410.32431 C 425.65929 410.32431 409.40943 366.31236 366.11874 334.53307 C 377.13458 323.80329 390.45321 315.43965 406.28941 312.80158 C 406.33491 312.98872 371.50394 298.12082 371.50394 298.12082 z " />
  </g>
</svg>
