<?xml version="1.0" encoding="UTF-8" standalone="no"?>
<!-- Created with Inkscape (http://www.inkscape.org/) -->

<svg
   width="500mm"
   height="500mm"
   viewBox="0 0 500 500"
   version="1.1"
   id="svg1"
   inkscape:version="1.3.2 (091e20e, 2023-11-25)"
   sodipodi:docname="TAZZA.svg"
   xmlns:inkscape="http://www.inkscape.org/namespaces/inkscape"
   xmlns:sodipodi="http://sodipodi.sourceforge.net/DTD/sodipodi-0.dtd"
   xmlns="http://www.w3.org/2000/svg"
   xmlns:svg="http://www.w3.org/2000/svg">
  <sodipodi:namedview
     id="namedview1"
     pagecolor="#ffffff"
     bordercolor="#000000"
     borderopacity="0.25"
     inkscape:showpageshadow="2"
     inkscape:pageopacity="0.0"
     inkscape:pagecheckerboard="0"
     inkscape:deskcolor="#d1d1d1"
     inkscape:document-units="mm"
     showgrid="false"
     inkscape:zoom="0.25982083"
     inkscape:cx="946.80629"
     inkscape:cy="944.88189"
     inkscape:window-width="1356"
     inkscape:window-height="697"
     inkscape:window-x="0"
     inkscape:window-y="0"
     inkscape:window-maximized="1"
     inkscape:current-layer="layer1" />
  <defs
     id="defs1" />
  <g
     inkscape:label="Layer 1"
     inkscape:groupmode="layer"
     id="layer1">
    <rect
       style="opacity:1;fill:#1a1a1a;fill-opacity:1;stroke-width:2.75867;stroke-linecap:round;stroke-linejoin:round"
       id="rect1"
       width="516.22491"
       height="509.82175"
       x="-7.0563817"
       y="-3.9213378" />
    <g
       id="g10"
       transform="matrix(1.1247767,0,0,1.1247767,-32.507172,-30.333754)">
      <ellipse
         style="opacity:1;fill:#bdbdbd;fill-opacity:1;stroke:none;stroke-width:2.63305;stroke-linecap:round;stroke-linejoin:round;stroke-dasharray:10.5323, 7.89916;stroke-dashoffset:0;stroke-opacity:1"
         id="ellipse10"
         ry="11.7941"
         rx="59.170254"
         cy="264.74753"
         cx="250.11461" />
      <ellipse
         style="opacity:1;fill:#f2f2f2;fill-opacity:1;stroke:none;stroke-width:2.439;stroke-linecap:round;stroke-linejoin:round;stroke-dasharray:9.75601, 7.317;stroke-dashoffset:0;stroke-opacity:1"
         id="path10"
         cx="250.11461"
         cy="263.77304"
         rx="59.170254"
         ry="10.119732" />
    </g>
    <g
       id="g11"
       style="fill:#b5b5b5;fill-opacity:1;stroke:none;stroke-opacity:1"
       transform="matrix(0.46431675,0,0,0.4765281,126.58574,96.063075)">
      <path
         id="path11"
         style="fill:#b5b5b5;fill-opacity:1;stroke:none;stroke-width:2.80101;stroke-linecap:round;stroke-linejoin:round;stroke-opacity:1"
         d="m 258.69377,151.82122 c -73.33819,-1e-5 -132.79034,5.03791 -132.79034,78.3761 0,73.33819 59.45215,132.79087 132.79034,132.79086 39.89871,0 75.66045,-17.62103 100.00217,-45.47681 a 59.702137,80.701248 28.085057 0 0 80.3615,-46.87001 59.702137,80.701248 28.085057 0 0 -14.67921,-99.30505 59.702137,80.701248 28.085057 0 0 -53.39054,3.75326 C 347.46036,153.94621 305.97771,151.82122 258.69377,151.82122 Z m 142.96957,31.93087 a 45.935478,62.092426 28.085057 0 1 13.95419,4.00131 45.935478,62.092426 28.085057 0 1 11.2944,76.40722 45.935478,62.092426 28.085057 0 1 -56.07255,37.10936 c 13.05423,-20.55466 20.64525,-44.92008 20.64525,-71.07266 0,-18.12049 -3.64163,-32.05836 -10.21333,-42.79377 a 45.935478,62.092426 28.085057 0 1 20.39204,-3.65146 z" />
      <ellipse
         style="fill:#b5b5b5;fill-opacity:1;stroke:none;stroke-width:3.59002;stroke-linecap:round;stroke-linejoin:round;stroke-opacity:1"
         id="ellipse11"
         cx="258.69391"
         cy="177.43922"
         rx="101.39378"
         ry="18.292103" />
    </g>
    <g
       id="g3"
       style="stroke:none;stroke-opacity:1"
       transform="matrix(0.4765281,0,0,0.4765281,124.42559,96.063075)">
      <path
         id="path1"
         style="fill:#ffffff;stroke:none;stroke-width:2.80101;stroke-linecap:round;stroke-linejoin:round;stroke-opacity:1"
         d="m 258.69377,151.82122 c -73.33819,-1e-5 -132.79034,5.03791 -132.79034,78.3761 0,73.33819 59.45215,132.79087 132.79034,132.79086 39.89871,0 75.66045,-17.62103 100.00217,-45.47681 a 59.702137,80.701248 28.085057 0 0 80.3615,-46.87001 59.702137,80.701248 28.085057 0 0 -14.67921,-99.30505 59.702137,80.701248 28.085057 0 0 -53.39054,3.75326 C 347.46036,153.94621 305.97771,151.82122 258.69377,151.82122 Z m 142.96957,31.93087 a 45.935478,62.092426 28.085057 0 1 13.95419,4.00131 45.935478,62.092426 28.085057 0 1 11.2944,76.40722 45.935478,62.092426 28.085057 0 1 -56.07255,37.10936 c 13.05423,-20.55466 20.64525,-44.92008 20.64525,-71.07266 0,-18.12049 -3.64163,-32.05836 -10.21333,-42.79377 a 45.935478,62.092426 28.085057 0 1 20.39204,-3.65146 z" />
      <ellipse
         style="fill:#281900;fill-opacity:1;stroke:none;stroke-width:3.59002;stroke-linecap:round;stroke-linejoin:round;stroke-opacity:1"
         id="path2"
         cx="258.69391"
         cy="177.43922"
         rx="101.39378"
         ry="18.292103" />
    </g>
    <g
       id="g5"
       style="stroke:none;stroke-opacity:1"
       transform="matrix(0.4765281,0,0,0.4765281,124.42559,96.063075)">
      <path
         style="opacity:0.437418;fill:#ffffff;fill-opacity:1;stroke:none;stroke-width:2.80101;stroke-linecap:round;stroke-linejoin:round;stroke-opacity:1"
         d="m 265.14721,177.82521 c 0,0 -35.7086,-38.89285 -18.15419,-79.579896 17.55442,-40.687048 59.47683,-53.826109 59.56151,-54.250419 0.48202,0.716044 -83.75129,61.175145 -41.40732,133.830315 z"
         id="path3"
         sodipodi:nodetypes="cscc" />
      <path
         style="opacity:0.437418;fill:#ffffff;fill-opacity:1;stroke:none;stroke-width:2.80101;stroke-linecap:round;stroke-linejoin:round;stroke-opacity:1"
         d="m 204.67285,171.30592 c 0,0 32.68062,-78.334182 37.88045,-118.749741 5.19983,-40.415559 -20.43164,-49.6185979 -20.43164,-49.6185979 0,0 31.70553,30.0141009 -17.44881,168.3683389 z"
         id="path4" />
      <path
         style="opacity:0.437418;fill:#ffffff;fill-opacity:1;stroke:none;stroke-width:2.80101;stroke-linecap:round;stroke-linejoin:round;stroke-opacity:1"
         d="m 328.58542,129.48321 c 7.1809,-3.53516 42.85322,-73.355899 -8.37895,-63.701873 -0.84506,-0.134858 39.03035,-3.298166 8.37895,63.701873 z"
         id="path5" />
    </g>
    <path
       id="rect6"
       style="fill:#fafafa;stroke:none;stroke-width:2.80101;stroke-linecap:round;stroke-linejoin:round;stroke-opacity:1"
       d="m 71.602171,323.1738 v 0.47387 l 49.689429,24.41385 -49.689429,50.42965 v 0.21239 c 114.949569,-36.25463 234.692589,-35.06297 358.679399,0 l -52.78184,-50.64204 53.01025,-24.79315 v -0.0946 c -134.14301,-32.52885 -252.03843,-28.62615 -358.907809,0 z"
       sodipodi:nodetypes="ccccccccccc" />
    <path
       style="font-size:31.75px;line-height:1.5;font-family:'Noto Sans Mono';-inkscape-font-specification:'Noto Sans Mono';letter-spacing:0px;word-spacing:0px;fill:#281900;stroke:#281900;stroke-width:3.51614;stroke-linecap:round;stroke-linejoin:round;stroke-opacity:1"
       d="m 202.22743,351.61468 -2.23636,-25.16973 -8.33697,0.74077 -0.28221,-3.17599 20.24695,-1.79899 0.2822,3.176 -8.33699,0.74074 2.23637,25.16973 z m 14.50441,-1.177 8.07771,-28.9291 3.78321,-0.15387 10.44014,28.17596 -3.66374,0.149 -3.0627,-8.61117 -9.59742,0.39034 -2.35329,8.83145 z m 9.12656,-20.79447 -2.28335,8.58928 7.60626,-0.30937 -2.97332,-8.37547 q -0.22666,-0.6689 -0.63529,-1.88883 -0.40861,-1.21996 -0.73758,-2.44315 -0.18873,1.24424 -0.497,2.49332 -0.30839,1.24906 -0.47978,1.93421 z m 17.76434,19.85252 -0.0146,-2.82976 12.51866,-22.58338 -11.83718,0.0608 -0.0159,-3.10876 15.54374,-0.0798 0.0145,2.82978 -12.35963,22.50285 12.47485,-0.0641 0.0164,3.18848 z m 23.91119,0.004 0.0745,-2.82882 13.22254,-22.17857 -11.83323,-0.31146 0.0818,-3.10772 15.53857,0.40897 -0.0745,2.82881 -13.06108,22.1031 12.4707,0.3282 -0.0839,3.18741 z m 20.92135,0.57883 10.82127,-28.01862 3.78049,0.21054 7.68322,29.04908 -3.66109,-0.20388 -2.22071,-8.8657 -9.59051,-0.53409 -3.19135,8.56434 z m 11.08329,-19.82083 -3.09847,8.33 7.60078,0.42326 -2.15443,-8.6225 q -0.16129,-0.6876 -0.45077,-1.94119 -0.28945,-1.25357 -0.4993,-2.5027 -0.30773,1.22027 -0.73432,2.43402 -0.42689,1.21369 -0.66349,1.87911 z"
       id="text7"
       aria-label="TAZZA" />
    <path
       id="path8"
       style="fill:none;stroke:#281900;stroke-width:2.439;stroke-linecap:round;stroke-linejoin:round;stroke-dasharray:9.756, 7.317;stroke-dashoffset:80.9748;stroke-opacity:1"
       d="m 95.155846,323.55989 v 0.41267 l 43.272714,21.26114 -43.272714,43.91732 v 0.18497 c 100.105374,-31.57283 204.385184,-30.53506 312.360754,0 l -45.96577,-44.10229 46.16469,-21.59145 v -0.0824 c -116.82023,-28.32819 -219.49104,-24.92948 -312.559674,0 z"
       sodipodi:nodetypes="ccccccccccc" />
    <path
       id="path9"
       style="fill:#fafafa;fill-opacity:1;stroke:none;stroke-width:2.44955;stroke-linecap:round;stroke-linejoin:round;stroke-dasharray:9.79826, 7.34865;stroke-dashoffset:0;stroke-opacity:1"
       d="M 251.83613,76.746985 A 165.34899,165.34899 0 0 0 86.487051,242.09606 165.34899,165.34899 0 0 0 100.25365,307.63315 c 4.08457,-0.95163 8.18704,-1.85734 12.30158,-2.73162 A 152.83638,152.83638 0 0 1 98.999981,242.09606 152.83638,152.83638 0 0 1 251.83613,89.259916 152.83638,152.83638 0 0 1 404.67228,242.09606 152.83638,152.83638 0 0 1 390.55945,306.12678 c 4.12631,0.85068 8.26929,1.74471 12.42456,2.67012 A 165.34899,165.34899 0 0 0 417.18521,242.09606 165.34899,165.34899 0 0 0 251.83613,76.746985 Z m -57.8807,306.466565 c -7.68931,0.71413 -15.36107,1.58588 -23.01462,2.62361 a 165.34899,165.34899 0 0 0 80.89532,21.60798 165.34899,165.34899 0 0 0 78.72491,-20.42252 c -7.52445,-1.08567 -15.03554,-2.04615 -22.52886,-2.84789 a 152.83638,152.83638 0 0 1 -56.19605,10.758 152.83638,152.83638 0 0 1 -57.8807,-11.71918 z" />
  </g>
</svg>
