<?xml version="1.0" encoding="UTF-8" standalone="no"?>
<!-- Created with Inkscape (http://www.inkscape.org/) -->

<svg
   width="500mm"
   height="500mm"
   viewBox="0 0 500 500"
   version="1.1"
   id="svg1"
   inkscape:version="1.3.2 (091e20e, 2023-11-25)"
   sodipodi:docname="Tesla.svg"
   xmlns:inkscape="http://www.inkscape.org/namespaces/inkscape"
   xmlns:sodipodi="http://sodipodi.sourceforge.net/DTD/sodipodi-0.dtd"
   xmlns="http://www.w3.org/2000/svg"
   xmlns:svg="http://www.w3.org/2000/svg">
  <sodipodi:namedview
     id="namedview1"
     pagecolor="#ffffff"
     bordercolor="#000000"
     borderopacity="0.25"
     inkscape:showpageshadow="2"
     inkscape:pageopacity="0.0"
     inkscape:pagecheckerboard="0"
     inkscape:deskcolor="#d1d1d1"
     inkscape:document-units="mm"
     showgrid="false"
     inkscape:zoom="0.25982083"
     inkscape:cx="944.88189"
     inkscape:cy="944.88189"
     inkscape:window-width="1356"
     inkscape:window-height="697"
     inkscape:window-x="0"
     inkscape:window-y="0"
     inkscape:window-maximized="1"
     inkscape:current-layer="layer1" />
  <defs
     id="defs1" />
  <g
     inkscape:label="Layer 1"
     inkscape:groupmode="layer"
     id="layer1">
    <g
       id="g7"
       transform="matrix(1.0854513,0,0,1.0854513,-7.5227972,-44.83531)"
       style="opacity:1;fill:#fd2929;fill-opacity:1">
      <path
         style="opacity:1;fill:#fd2929;fill-opacity:1;stroke-width:10;stroke-linecap:square;stroke-dashoffset:3666.14"
         d="m 60.034881,128.01651 c 0,0 161.347899,-77.748278 355.901679,0 0.20261,-0.46186 -12.86505,22.28292 -12.86505,22.28292 0,0 -170.19949,-70.64859 -327.69255,0 0.29427,0.47804 -15.344079,-22.28292 -15.344079,-22.28292 z"
         id="path1" />
      <path
         id="path2"
         style="opacity:1;fill:#fd2929;fill-opacity:1;stroke-width:10;stroke-linecap:square;stroke-dashoffset:3666.14"
         d="m 189.75121,132.66684 c -35.01265,3.7278 -72.27356,12.2362 -110.022226,28.19776 0.659683,-0.36898 8.875476,25.47381 44.365766,40.4766 0.64677,-0.85676 3.26063,-20.57347 17.58084,-27.55284 0.59117,0.87305 5.26665,-9.1204 57.63317,-9.13846 l 3.36207,-0.0646 v -14.71745 z" />
      <path
         id="path3"
         style="opacity:1;fill:#fd2929;fill-opacity:1;stroke-width:10;stroke-linecap:square;stroke-dashoffset:3666.14"
         d="m 280.40614,131.91133 -5.1015,6.78821 v 25.88576 l 3.36207,0.0646 c 52.36653,0.0181 57.04201,10.01151 57.63318,9.13846 14.3202,6.97937 16.93407,26.69608 17.58084,27.55284 35.49029,-15.00279 43.70608,-40.84558 44.36576,-40.4766 -40.57286,-17.15573 -80.58139,-25.70148 -117.84035,-28.95327 z" />
      <path
         id="path4"
         style="opacity:1;fill:#fd2929;fill-opacity:1;stroke-width:10;stroke-linecap:square;stroke-dashoffset:3666.14"
         inkscape:transform-center-x="-0.004297417"
         inkscape:transform-center-y="50.918326"
         d="M 263.80022,223.61706 225.64217,74.269652 115.38258,181.98872 l 28.29999,7.93756 52.12036,-9.23663 39.71712,34.99542 z"
         transform="matrix(-0.7975439,0.6179188,-0.22359518,-2.2040608,431.34534,469.88095)" />
    </g>
  </g>
</svg>
