<?xml version="1.0" encoding="UTF-8" standalone="no"?>
<!-- Created with Inkscape (http://www.inkscape.org/) -->

<svg
   width="500mm"
   height="500mm"
   viewBox="0 0 500 500"
   version="1.1"
   id="svg1"
   inkscape:version="1.3.2 (091e20e, 2023-11-25)"
   xml:space="preserve"
   sodipodi:docname="Ubuntu.svg"
   xmlns:inkscape="http://www.inkscape.org/namespaces/inkscape"
   xmlns:sodipodi="http://sodipodi.sourceforge.net/DTD/sodipodi-0.dtd"
   xmlns="http://www.w3.org/2000/svg"
   xmlns:svg="http://www.w3.org/2000/svg"><sodipodi:namedview
     id="namedview1"
     pagecolor="#ffffff"
     bordercolor="#000000"
     borderopacity="0.25"
     inkscape:showpageshadow="2"
     inkscape:pageopacity="0.0"
     inkscape:pagecheckerboard="0"
     inkscape:deskcolor="#d1d1d1"
     inkscape:document-units="mm"
     showgrid="false"
     inkscape:zoom="0.25982083"
     inkscape:cx="1035.3288"
     inkscape:cy="910.24265"
     inkscape:window-width="1356"
     inkscape:window-height="697"
     inkscape:window-x="0"
     inkscape:window-y="0"
     inkscape:window-maximized="1"
     inkscape:current-layer="layer1" /><defs
     id="defs1" /><g
     inkscape:label="Layer 1"
     inkscape:groupmode="layer"
     id="layer1"><g
       id="g8"
       transform="matrix(0.3388661,0,0,0.3388661,31.05458,167.17489)"><path
         style="fill:#c90016;fill-opacity:1;stroke-width:13.5576;stroke-linecap:round;stroke-linejoin:round"
         d="M 395.94224,255.74408 A 136.56237,136.56237 0 0 1 260.81199,372.67699 136.56237,136.56237 0 0 1 184.44197,349.09704 l -40.35154,40.35154 a 193.49557,193.49557 0 0 0 117.22954,40.16086 193.49557,193.49557 0 0 0 54.92636,-8.04809 59.544022,59.544022 0 0 1 59.04342,-52.54615 59.544022,59.544022 0 0 1 21.91805,4.19768 193.49557,193.49557 0 0 0 56.59292,-117.4688 z"
         id="path7" /><path
         style="fill:#ffb515;fill-opacity:1;stroke-width:13.5576;stroke-linecap:round;stroke-linejoin:round"
         d="m 115.73764,108.7484 a 193.49557,193.49557 0 0 0 -41.025921,77.42525 61.760807,61.760807 0 0 1 25.443921,49.94062 61.760807,61.760807 0 0 1 -25.512134,49.81711 193.49557,193.49557 0 0 0 40.493654,76.9488 l 40.27093,-40.27145 a 136.56237,136.56237 0 0 1 -31.15831,-86.49446 136.56237,136.56237 0 0 1 31.67249,-87.18073 z"
         id="path6" /><path
         style="fill:#ff6309;fill-opacity:1;stroke-width:13.5576;stroke-linecap:round;stroke-linejoin:round"
         d="M 261.31997,42.619104 A 193.49557,193.49557 0 0 0 144.77721,82.266813 l 40.35051,40.351027 A 136.56237,136.56237 0 0 1 260.81199,99.551546 136.56237,136.56237 0 0 1 395.94741,216.48549 h 57.46316 A 193.49557,193.49557 0 0 0 382.63711,86.321863 54.592342,54.592342 0 0 1 359.08661,91.731352 54.592342,54.592342 0 0 1 305.81389,48.419267 193.49557,193.49557 0 0 0 261.31997,42.619104 Z"
         id="path1" /><circle
         style="fill:#c90016;fill-opacity:1;stroke-width:10;stroke-linecap:round;stroke-linejoin:round"
         id="path3"
         cx="361.94131"
         cy="33.012356"
         r="43.642002" /><circle
         style="fill:#ffb515;fill-opacity:1;stroke-width:10;stroke-linecap:round;stroke-linejoin:round"
         id="circle3"
         cx="375.28992"
         cy="428.5593"
         r="43.642002" /><circle
         style="fill:#ff6309;fill-opacity:1;stroke-width:10;stroke-linecap:round;stroke-linejoin:round"
         id="circle4"
         cx="38.394688"
         cy="236.11427"
         r="43.642002" /></g><text
       xml:space="preserve"
       style="font-style:normal;font-variant:normal;font-weight:normal;font-stretch:normal;font-size:31.75px;line-height:1.5;font-family:ubuntu;-inkscape-font-specification:ubuntu;letter-spacing:0px;word-spacing:0px;opacity:0.428316;fill:#ff6309;fill-opacity:1;stroke-width:10;stroke-linecap:round;stroke-linejoin:round"
       x="164.37727"
       y="241.79083"
       id="text8"><tspan
         sodipodi:role="line"
         id="tspan8"
         style="stroke-width:10"
         x="164.37727"
         y="241.79083" /></text><text
       xml:space="preserve"
       style="font-style:normal;font-variant:normal;font-weight:normal;font-stretch:normal;font-size:31.75px;line-height:1.5;font-family:Ubuntu;-inkscape-font-specification:Ubuntu;letter-spacing:0px;word-spacing:0px;opacity:0.428316;fill:#ff6309;fill-opacity:1;stroke-width:10;stroke-linecap:round;stroke-linejoin:round"
       x="161.60757"
       y="245.72693"
       id="text9"><tspan
         sodipodi:role="line"
         id="tspan9"
         style="stroke-width:10"
         x="161.60757"
         y="245.72693" /></text><text
       xml:space="preserve"
       style="font-size:70.9777px;line-height:1.5;font-family:Ubuntu;-inkscape-font-specification:Ubuntu;letter-spacing:0px;word-spacing:0px;opacity:1;fill:#ff6309;stroke-width:22.3552;stroke-linecap:round;stroke-linejoin:round"
       x="223.15866"
       y="280.40027"
       id="text1"><tspan
         sodipodi:role="line"
         id="tspan1"
         style="stroke-width:22.3552"
         x="223.15866"
         y="280.40027">Ubuntu</tspan></text></g></svg>
