<?xml version="1.0" encoding="UTF-8" standalone="no"?>
<!-- Created with Inkscape (http://www.inkscape.org/) -->

<svg
   width="500mm"
   height="500mm"
   viewBox="0 0 500 500"
   version="1.1"
   id="svg1"
   inkscape:version="1.3.2 (091e20e, 2023-11-25)"
   sodipodi:docname="XBOX.svg"
   xmlns:inkscape="http://www.inkscape.org/namespaces/inkscape"
   xmlns:sodipodi="http://sodipodi.sourceforge.net/DTD/sodipodi-0.dtd"
   xmlns="http://www.w3.org/2000/svg"
   xmlns:svg="http://www.w3.org/2000/svg">
  <sodipodi:namedview
     id="namedview1"
     pagecolor="#ffffff"
     bordercolor="#000000"
     borderopacity="0.25"
     inkscape:showpageshadow="2"
     inkscape:pageopacity="0.0"
     inkscape:pagecheckerboard="0"
     inkscape:deskcolor="#d1d1d1"
     inkscape:document-units="mm"
     showgrid="false"
     inkscape:zoom="0.25982083"
     inkscape:cx="942.9575"
     inkscape:cy="944.8819"
     inkscape:window-width="1356"
     inkscape:window-height="697"
     inkscape:window-x="0"
     inkscape:window-y="0"
     inkscape:window-maximized="1"
     inkscape:current-layer="layer1" />
  <defs
     id="defs1" />
  <g
     inkscape:label="Layer 1"
     inkscape:groupmode="layer"
     id="layer1">
    <ellipse
       style="fill:#ffffff;fill-opacity:1;stroke:none;stroke-width:20.0469;stroke-linecap:round;stroke-linejoin:round;stroke-opacity:1"
       id="path2"
       cx="253.38533"
       cy="247.6871"
       rx="188.7565"
       ry="188.757" />
    <path
       id="path1"
       style="fill:#00a20a;fill-opacity:1;stroke:none;stroke-width:3.37437;stroke-linecap:round;stroke-linejoin:round;stroke-dasharray:none;stroke-opacity:1"
       d="m 253.38507,58.930146 a 188.7569,188.7569 0 0 0 -97.74183,27.612268 c 38.02219,2.78424 70.69355,14.933336 98.63584,32.706016 27.66621,-17.57868 59.93434,-29.696913 97.46847,-32.626434 A 188.7569,188.7569 0 0 0 253.38507,58.930146 Z M 132.92938,102.67373 A 188.7569,188.7569 0 0 0 64.628636,247.6871 188.7569,188.7569 0 0 0 103.20251,361.23831 c 0.13178,-0.25336 1.22783,-2.40192 1.22783,-2.40192 0,0 27.53193,-129.83744 112.68511,-210.39594 -48.25216,-35.0282 -81.78249,-43.53965 -84.18607,-45.76672 z m 241.80901,0.48886 c -5.78899,2.88358 -38.12211,12.38644 -83.367,45.22928 85.1491,80.57151 112.65669,210.44452 112.65669,210.44452 0,0 0.72781,1.42586 0.78238,1.53066 A 188.7569,188.7569 0 0 0 442.14203,247.6871 188.7569,188.7569 0 0 0 374.73839,103.16259 Z m -120.52443,75.43674 c -37.69014,33.95638 -80.51711,82.98369 -123.00179,153.92755 -9.29467,15.52089 -15.66798,25.86434 -22.19399,36.47995 A 188.7569,188.7569 0 0 0 253.38507,436.44406 188.7569,188.7569 0 0 0 398.81961,367.9857 C 392.40602,357.54303 386.28082,347.61344 377.24625,332.52688 334.75534,261.57262 291.92013,212.5591 254.21396,178.59933 Z" />
  </g>
</svg>
